<svg width="349" height="97" viewBox="0 0 349 97" fill="none" xmlns="http://www.w3.org/2000/svg">
<path d="M24.864 58.6C23.264 58.6 21.76 58.984 20.352 59.752C18.944 60.456 17.696 61.448 16.608 62.728C15.584 63.944 14.752 65.384 14.112 67.048C13.536 68.712 13.248 70.504 13.248 72.424C13.248 74.344 13.536 76.104 14.112 77.704C14.752 79.24 15.584 80.584 16.608 81.736C17.696 82.824 18.944 83.688 20.352 84.328C21.76 84.968 23.264 85.288 24.864 85.288C26.848 85.288 28.768 84.84 30.624 83.944C32.544 82.984 34.176 81.672 35.52 80.008L43.68 88.072C41.44 90.76 38.688 92.904 35.424 94.504C32.16 96.104 28.64 96.904 24.864 96.904C21.408 96.904 18.176 96.264 15.168 94.984C12.16 93.64 9.536 91.848 7.296 89.608C5.056 87.304 3.264 84.648 1.92 81.64C0.64 78.568 0 75.304 0 71.848C0 68.392 0.64 65.16 1.92 62.152C3.264 59.08 5.056 56.424 7.296 54.184C9.536 51.88 12.16 50.088 15.168 48.808C18.176 47.464 21.408 46.792 24.864 46.792C28.768 46.792 32.384 47.624 35.712 49.288C39.04 50.952 41.856 53.224 44.16 56.104L34.944 63.208C33.088 61.48 31.392 60.296 29.856 59.656C28.384 58.952 26.72 58.6 24.864 58.6Z" fill="#192038"/>
<path d="M74.3663 46.792C77.9503 46.792 81.2143 47.528 84.1583 49C87.1023 50.408 89.6303 52.296 91.7423 54.664C93.8543 56.968 95.4863 59.656 96.6383 62.728C97.7903 65.736 98.3663 68.84 98.3663 72.04C98.3663 73.96 98.1103 76.008 97.5983 78.184H63.6142C64.8942 80.36 66.7183 82.216 69.0863 83.752C71.4543 85.224 74.0143 85.96 76.7663 85.96C79.5183 85.96 81.9183 85.736 83.9663 85.288C86.0783 84.84 88.0623 84.264 89.9183 83.56L94.3343 91.72C91.9663 93.384 89.2463 94.664 86.1743 95.56C83.1663 96.456 79.9343 96.904 76.4783 96.904C72.7023 96.904 69.1823 96.264 65.9183 94.984C62.6543 93.64 59.8062 91.848 57.3742 89.608C54.9422 87.368 53.0223 84.712 51.6143 81.64C50.2063 78.568 49.5023 75.304 49.5023 71.848C49.5023 68.456 50.1422 65.256 51.4222 62.248C52.7022 59.176 54.4623 56.52 56.7023 54.28C59.0063 51.976 61.6622 50.152 64.6702 48.808C67.6783 47.464 70.9103 46.792 74.3663 46.792ZM85.2143 67.912C84.4463 65.16 83.0703 62.92 81.0863 61.192C79.1023 59.464 76.8623 58.6 74.3663 58.6C71.8063 58.6 69.4703 59.464 67.3583 61.192C65.3103 62.92 63.9023 65.16 63.1343 67.912H85.2143Z" fill="#192038"/>
<path d="M111.684 44.104C111.684 40.776 112.164 37.928 113.124 35.56C114.148 33.128 115.492 31.144 117.156 29.608C118.82 28.008 120.74 26.856 122.916 26.152C125.092 25.384 127.396 25 129.828 25C131.3 25 132.772 25.128 134.244 25.384C135.716 25.64 137.188 26.024 138.66 26.536L137.604 36.232L134.436 35.752C133.924 35.688 133.444 35.656 132.996 35.656C132.612 35.592 132.228 35.56 131.844 35.56C129.412 35.56 127.62 36.168 126.468 37.384C125.38 38.536 124.836 40.232 124.836 42.472V48.136H137.604V59.944H124.836V95.752H111.684V59.944H105.444V52.936L111.684 48.136V44.104Z" fill="#192038"/>
<path d="M194.139 48.136V95.752H182.715L181.371 90.664C179.515 93.16 177.275 94.824 174.651 95.656C172.091 96.488 169.403 96.904 166.587 96.904C163.195 96.904 160.059 96.264 157.179 94.984C154.363 93.64 151.899 91.848 149.787 89.608C147.675 87.304 146.011 84.648 144.795 81.64C143.643 78.568 143.067 75.304 143.067 71.848C143.067 68.392 143.643 65.16 144.795 62.152C146.011 59.08 147.675 56.424 149.787 54.184C151.899 51.88 154.363 50.088 157.179 48.808C160.059 47.464 163.195 46.792 166.587 46.792C169.659 46.792 172.475 47.272 175.035 48.232C177.595 49.192 179.707 50.728 181.371 52.84L182.715 48.136H194.139ZM180.891 72.04C180.891 69.544 180.539 67.464 179.835 65.8C179.195 64.072 178.299 62.696 177.147 61.672C176.059 60.584 174.747 59.816 173.211 59.368C171.739 58.856 170.139 58.6 168.411 58.6C166.683 58.6 165.051 58.952 163.515 59.656C162.043 60.36 160.731 61.32 159.579 62.536C158.427 63.688 157.531 65.096 156.891 66.76C156.251 68.36 155.931 70.056 155.931 71.848C155.931 73.704 156.251 75.432 156.891 77.032C157.531 78.632 158.427 80.04 159.579 81.256C160.731 82.408 162.043 83.336 163.515 84.04C165.051 84.744 166.683 85.096 168.411 85.096C171.867 85.096 174.779 84.04 177.147 81.928C179.579 79.752 180.827 76.456 180.891 72.04Z" fill="#192038"/>
<path d="M203.105 25.576H216.353V95.752H203.105V25.576Z" fill="#192038"/>
<path d="M238.871 95.752H225.623V48.136H238.871V95.752ZM232.247 41.608C230.199 41.608 228.471 40.904 227.063 39.496C225.655 38.088 224.951 36.36 224.951 34.312C224.951 32.264 225.655 30.536 227.063 29.128C228.471 27.656 230.199 26.92 232.247 26.92C234.295 26.92 236.023 27.656 237.431 29.128C238.839 30.536 239.543 32.264 239.543 34.312C239.543 36.36 238.839 38.088 237.431 39.496C236.023 40.904 234.295 41.608 232.247 41.608Z" fill="#192038"/>
<path d="M298.577 48.136V95.752H287.152L285.809 90.664C283.953 93.16 281.712 94.824 279.089 95.656C276.528 96.488 273.841 96.904 271.025 96.904C267.633 96.904 264.496 96.264 261.616 94.984C258.8 93.64 256.336 91.848 254.224 89.608C252.112 87.304 250.448 84.648 249.232 81.64C248.08 78.568 247.505 75.304 247.505 71.848C247.505 68.392 248.08 65.16 249.232 62.152C250.448 59.08 252.112 56.424 254.224 54.184C256.336 51.88 258.8 50.088 261.616 48.808C264.496 47.464 267.633 46.792 271.025 46.792C274.097 46.792 276.913 47.272 279.473 48.232C282.033 49.192 284.145 50.728 285.809 52.84L287.152 48.136H298.577ZM285.328 72.04C285.328 69.544 284.976 67.464 284.272 65.8C283.632 64.072 282.737 62.696 281.585 61.672C280.497 60.584 279.184 59.816 277.648 59.368C276.176 58.856 274.577 58.6 272.849 58.6C271.121 58.6 269.488 58.952 267.952 59.656C266.48 60.36 265.169 61.32 264.017 62.536C262.865 63.688 261.968 65.096 261.328 66.76C260.688 68.36 260.368 70.056 260.368 71.848C260.368 73.704 260.688 75.432 261.328 77.032C261.968 78.632 262.865 80.04 264.017 81.256C265.169 82.408 266.48 83.336 267.952 84.04C269.488 84.744 271.121 85.096 272.849 85.096C276.305 85.096 279.217 84.04 281.585 81.928C284.017 79.752 285.264 76.456 285.328 72.04Z" fill="#192038"/>
<path fill-rule="evenodd" clip-rule="evenodd" d="M314 35V50H334V35H349V15H334V0H314V15H299V35H314Z" fill="#34b6f8"/>
</svg>
