<svg width="601" height="639" viewBox="0 0 601 639" fill="none" xmlns="http://www.w3.org/2000/svg">
<g clip-path="url(#clip0)">
<path d="M502.615 167.119C479.505 157.804 459.911 155.593 443.293 158.673C442.52 90.7197 424.177 30.6667 368.938 8.39958C316.564 -12.71 280.271 8.15837 255.121 46.6622C247.751 41.9252 239.946 37.9016 231.814 34.6459C65.3947 -32.4294 103.546 229.194 103.546 229.194L198.519 293.908C198.446 296.567 198.429 298.002 198.429 298.002L389.434 428.153C389.434 428.153 390.02 426.583 391.063 423.668L583.493 536.051C583.493 536.051 657.046 229.362 502.615 167.119Z" fill="#e7f6fe"/>
<path opacity="0.97" d="M106.823 294.774C106.823 294.774 -27.9861 318.926 14.752 386.666C57.4901 454.406 183.522 464.774 141.212 513.045C98.9016 561.316 53.764 626.8 200.556 637.49C347.349 648.18 584.549 600.633 600.578 541.623C616.607 482.614 169.616 262.052 169.616 262.052L106.823 294.774Z" fill="#F2F3F6"/>
<path d="M124.739 96.5715L121.916 94.9302C122.124 94.809 122.34 94.7013 122.562 94.6076L125.387 96.2504C125.164 96.3436 124.948 96.4508 124.739 96.5715Z" fill="#152642"/>
<path d="M125.387 96.2476L122.562 94.6048C122.74 94.5302 122.922 94.4677 123.107 94.4178L125.93 96.0592C125.746 96.1105 125.564 96.1734 125.387 96.2476Z" fill="#152642"/>
<path d="M125.93 96.062L123.107 94.4206C123.241 94.3839 123.376 94.3548 123.512 94.3336L126.337 95.975C126.2 95.997 126.064 96.0261 125.93 96.062Z" fill="#152642"/>
<path d="M126.343 95.9749L123.518 94.3336C123.632 94.3154 123.747 94.3039 123.862 94.2993L126.687 95.9407C126.574 95.9407 126.46 95.9578 126.343 95.9749Z" fill="#152642"/>
<path d="M126.681 95.9407L123.856 94.2993C123.96 94.2993 124.063 94.2993 124.162 94.2993L126.986 95.9421C126.886 95.9421 126.785 95.935 126.681 95.9421" fill="#152642"/>
<path d="M126.986 95.9436L124.161 94.3008C124.257 94.3008 124.35 94.3179 124.447 94.3336L127.27 95.9764C127.178 95.9602 127.085 95.9492 126.992 95.9436" fill="#152642"/>
<path d="M127.264 95.9764L124.441 94.3336C124.528 94.349 124.614 94.369 124.699 94.3935L127.524 96.0363C127.439 96.0105 127.352 95.9904 127.264 95.9764Z" fill="#152642"/>
<path d="M127.524 96.0363L124.699 94.3935C124.782 94.4176 124.863 94.4462 124.942 94.4792L127.766 96.122C127.687 96.089 127.606 96.0604 127.524 96.0363Z" fill="#152642"/>
<path d="M127.769 96.122L124.945 94.4792C125.024 94.5129 125.102 94.551 125.177 94.5933L128 96.2347C127.926 96.1926 127.848 96.1549 127.769 96.122Z" fill="#152642"/>
<path d="M127.998 96.2347L125.174 94.5934L125.199 94.6076L128.023 96.249L127.998 96.2347Z" fill="#152642"/>
<path d="M36.0219 294.947L33.1973 293.306L32.7808 146.418L35.6053 148.059L36.0219 294.947Z" fill="#352432"/>
<path d="M35.6053 148.058L32.7808 146.417L121.92 94.9302L124.745 96.573L35.6053 148.058Z" fill="#05517a"/>
<path d="M124.739 96.5715C127.29 95.0986 129.36 96.2861 129.368 99.2106L129.755 235.481C129.671 237.079 129.211 238.635 128.412 240.022C127.613 241.408 126.497 242.586 125.156 243.459L36.0219 294.947L35.6053 148.058L124.739 96.5715Z" fill="#6D788C"/>
<path d="M57.5158 304.193L37.7537 292.699L37.3514 150.704L57.1206 162.198L57.5158 304.193Z" fill="#DEDEDE"/>
<path d="M126.02 101.788L125.983 101.767C125.874 101.705 125.76 101.65 125.644 101.601L125.578 101.579C125.54 101.563 125.501 101.551 125.463 101.537C125.424 101.523 125.347 101.493 125.287 101.476C125.227 101.459 125.157 101.446 125.092 101.43C125.052 101.421 125.012 101.41 124.972 101.403L124.908 101.387C124.772 101.364 124.635 101.348 124.498 101.34H124.473C124.44 101.34 124.405 101.34 124.373 101.34C124.267 101.34 124.162 101.333 124.052 101.34C124.015 101.34 123.976 101.349 123.94 101.352L123.736 101.372C123.672 101.379 123.611 101.382 123.547 101.392C123.482 101.402 123.434 101.417 123.378 101.427C123.286 101.444 123.196 101.464 123.103 101.486C123.052 101.499 123.003 101.504 122.952 101.519C122.9 101.533 122.851 101.556 122.801 101.571C122.644 101.618 122.484 101.673 122.323 101.736C122.267 101.757 122.213 101.77 122.156 101.793C122.124 101.807 122.092 101.827 122.06 101.841C121.767 101.967 121.481 102.11 121.204 102.269L37.34 150.713L57.1106 162.207L140.973 113.763C141.25 113.603 141.536 113.46 141.829 113.335C141.919 113.297 142.006 113.262 142.095 113.228C142.256 113.167 142.414 113.111 142.571 113.064C142.672 113.034 142.774 113.004 142.872 112.98C142.971 112.955 143.058 112.938 143.149 112.921C143.269 112.898 143.389 112.878 143.507 112.865C143.575 112.865 143.65 112.85 143.711 112.845C143.853 112.835 143.996 112.832 144.139 112.837H144.239C144.406 112.847 144.573 112.868 144.738 112.9L144.857 112.927C144.983 112.956 145.107 112.992 145.229 113.035L145.344 113.075C145.497 113.134 145.645 113.205 145.787 113.287L126.02 101.788Z" fill="#E6E6E6"/>
<path d="M140.978 113.755C144.712 111.597 147.751 113.326 147.762 117.623L148.121 244.069C147.998 246.41 147.323 248.688 146.151 250.718C144.98 252.749 143.345 254.473 141.38 255.75L57.5158 304.195L57.1135 162.198L140.978 113.755Z" fill="white"/>
<path d="M148.688 111.477L145.864 109.834C146.073 109.713 146.289 109.606 146.511 109.511L149.336 111.154C149.113 111.248 148.897 111.355 148.688 111.477Z" fill="#152642"/>
<path d="M149.336 111.154L146.511 109.511C146.689 109.437 146.871 109.375 147.056 109.324L149.879 110.966C149.694 111.017 149.513 111.08 149.336 111.154Z" fill="#152642"/>
<path d="M149.881 110.966L147.058 109.324C147.191 109.288 147.327 109.259 147.464 109.237L150.289 110.879C150.151 110.901 150.015 110.93 149.881 110.966Z" fill="#152642"/>
<path d="M150.287 110.879L147.463 109.237C147.577 109.219 147.692 109.208 147.808 109.203L150.633 110.844C150.52 110.844 150.404 110.862 150.287 110.879Z" fill="#152642"/>
<path d="M150.633 110.844L147.808 109.203C147.912 109.203 148.013 109.203 148.113 109.203L150.938 110.846C150.838 110.846 150.737 110.846 150.633 110.846" fill="#152642"/>
<path d="M150.938 110.847L148.113 109.204C148.209 109.204 148.302 109.222 148.399 109.237L151.223 110.88C151.129 110.864 151.034 110.853 150.938 110.847Z" fill="#152642"/>
<path d="M151.218 110.88L148.393 109.237C148.48 109.253 148.567 109.273 148.653 109.297L151.477 110.94C151.392 110.916 151.305 110.896 151.218 110.88Z" fill="#152642"/>
<path d="M151.477 110.94L148.653 109.297C148.736 109.321 148.817 109.35 148.897 109.384L151.721 111.026C151.641 110.993 151.56 110.964 151.477 110.94Z" fill="#152642"/>
<path d="M151.721 111.026L148.896 109.384C148.976 109.417 149.053 109.454 149.128 109.497L151.952 111.14C151.878 111.097 151.801 111.059 151.721 111.026Z" fill="#152642"/>
<path d="M151.952 111.14L149.128 109.497L149.153 109.511L151.978 111.154L151.952 111.14Z" fill="#152642"/>
<path d="M59.9695 309.854L57.1449 308.212L56.7269 161.323L59.5515 162.965L59.9695 309.854Z" fill="#352432"/>
<path d="M59.5543 162.966L56.7297 161.325L145.864 109.837L148.688 111.478L59.5543 162.966Z" fill="#05517a"/>
<path d="M148.688 111.477C151.237 110.004 153.317 111.18 153.325 114.12L153.711 250.39C153.626 251.989 153.164 253.544 152.363 254.93C151.563 256.316 150.446 257.493 149.103 258.364L59.9694 309.852L59.5543 162.965L148.688 111.477Z" fill="#B4BDCC"/>
<path d="M32.8792 146.418L59.4288 162.952L59.9695 309.852L33.1973 293.306L32.8792 146.418Z" fill="#6D788C"/>
<path d="M37.1189 143.829L63.8169 160.314L59.3318 162.965L32.7822 146.431L37.1189 143.829Z" fill="#05517a"/>
<path d="M37.6867 175.936V282.937C37.6871 284.3 38.0262 285.643 38.6736 286.843C39.3211 288.044 40.2565 289.064 41.3958 289.813C42.6357 290.628 44.0728 291.091 45.5547 291.155C47.0365 291.219 48.508 290.88 49.8133 290.175C51.1186 289.471 52.209 288.426 52.969 287.151C53.7291 285.877 54.1304 284.421 54.1306 282.937V175.936C54.1308 174.48 53.7451 173.051 53.0128 171.793C52.2805 170.536 51.2278 169.495 49.9622 168.778C48.7113 168.069 47.2965 167.701 45.8589 167.709C44.4213 167.718 43.0111 168.104 41.769 168.828C40.527 169.552 39.4963 170.59 38.78 171.837C38.0637 173.084 37.6868 174.497 37.6867 175.936Z" fill="#05517a"/>
<path d="M86.6032 319.2L83.7786 317.558L83.3621 170.671L86.1866 172.312L86.6032 319.2Z" fill="#AAAFB9"/>
<path d="M175.78 118.859L175.756 118.844C175.606 118.759 175.447 118.692 175.281 118.645C175.226 118.629 175.169 118.619 175.114 118.606L175.078 118.597C175.058 118.597 175.041 118.589 175.022 118.585C174.928 118.569 174.833 118.558 174.737 118.553C174.635 118.547 174.534 118.547 174.432 118.553C174.399 118.553 174.363 118.553 174.329 118.563H174.262C174.204 118.563 174.148 118.572 174.088 118.58C173.951 118.602 173.816 118.631 173.683 118.667C173.624 118.683 173.563 118.71 173.505 118.729L173.343 118.784C173.275 118.809 173.201 118.826 173.138 118.854C172.916 118.948 172.7 119.056 172.492 119.177L83.3578 170.665L86.1809 172.308L175.315 120.82L173.903 119.998L175.315 120.82C175.588 120.663 175.874 120.531 176.171 120.426L176.332 120.37C176.578 120.289 176.832 120.234 177.09 120.205H177.155C177.403 120.183 177.654 120.195 177.898 120.242L177.935 120.25C178.169 120.298 178.394 120.383 178.602 120.501L175.78 118.859Z" fill="#6D788C"/>
<path d="M175.321 120.824C177.871 119.35 179.941 120.531 179.95 123.463L180.336 259.732C180.253 261.33 179.793 262.887 178.994 264.274C178.194 265.661 177.078 266.839 175.737 267.712L86.6032 319.2L86.1866 172.31L175.321 120.824Z" fill="#E8E9ED"/>
<path d="M108.097 328.446L88.3279 316.952L87.9257 174.957L107.695 186.451L108.097 328.446Z" fill="#DEDEDE"/>
<path d="M176.602 126.039L176.565 126.019C176.455 125.956 176.342 125.9 176.225 125.852L176.159 125.829C176.121 125.814 176.082 125.802 176.044 125.788C176.005 125.774 175.928 125.744 175.868 125.727C175.809 125.71 175.739 125.697 175.673 125.681C175.633 125.672 175.593 125.661 175.553 125.654L175.489 125.638C175.353 125.615 175.217 125.599 175.08 125.591H175.054C175.021 125.591 174.987 125.591 174.954 125.591C174.848 125.591 174.743 125.591 174.633 125.591C174.596 125.591 174.557 125.601 174.522 125.603L174.318 125.624C174.254 125.624 174.192 125.633 174.128 125.643C174.064 125.653 174.015 125.668 173.958 125.678C173.868 125.695 173.776 125.715 173.684 125.738C173.633 125.75 173.585 125.755 173.533 125.77C173.482 125.784 173.432 125.807 173.382 125.822C173.225 125.869 173.065 125.924 172.904 125.986C172.848 126.008 172.794 126.021 172.737 126.045C172.706 126.058 172.673 126.079 172.642 126.092C172.348 126.218 172.062 126.361 171.786 126.52L87.9257 174.955L107.695 186.449L191.559 138.006C191.836 137.847 192.122 137.704 192.415 137.577C192.505 137.539 192.592 137.505 192.68 137.47C192.842 137.409 193 137.353 193.157 137.306C193.258 137.276 193.359 137.246 193.458 137.222C193.556 137.198 193.643 137.181 193.735 137.164C193.854 137.141 193.974 137.121 194.093 137.108C194.161 137.101 194.235 137.092 194.297 137.088C194.444 137.078 194.587 137.076 194.725 137.079H194.824C194.992 137.09 195.159 137.111 195.324 137.142L195.442 137.171C195.568 137.199 195.693 137.234 195.814 137.278L195.93 137.318C196.083 137.376 196.231 137.447 196.372 137.529L176.602 126.039Z" fill="#E6E6E6"/>
<path d="M191.559 138.006C195.294 135.849 198.332 137.578 198.344 141.874L198.702 268.32C198.579 270.661 197.904 272.939 196.733 274.969C195.561 277 193.926 278.724 191.961 280.001L108.097 328.445L107.695 186.449L191.559 138.006Z" fill="white"/>
<path d="M110.551 334.103L107.726 332.462L107.31 185.574L110.134 187.216L110.551 334.103Z" fill="#AAAFB9"/>
<path d="M199.735 133.762L199.709 133.748C199.634 133.706 199.557 133.668 199.478 133.635C199.398 133.602 199.317 133.573 199.234 133.548C199.18 133.533 199.123 133.523 199.067 133.511L199.03 133.501L198.974 133.488C198.88 133.472 198.785 133.462 198.689 133.457C198.587 133.451 198.485 133.451 198.384 133.457C198.349 133.457 198.314 133.457 198.28 133.467L198.213 133.474C198.155 133.474 198.098 133.483 198.038 133.491C197.901 133.513 197.766 133.542 197.632 133.578C197.573 133.594 197.513 133.621 197.455 133.64L197.292 133.695C197.222 133.72 197.15 133.737 197.087 133.767C196.864 133.86 196.648 133.967 196.439 134.089L107.305 185.576L110.13 187.218L199.264 135.731C199.537 135.574 199.823 135.443 200.12 135.338L200.282 135.281C200.529 135.2 200.783 135.145 201.041 135.115H201.108C201.357 135.094 201.608 135.106 201.853 135.153L201.89 135.161C202.125 135.21 202.35 135.295 202.558 135.414L199.735 133.762Z" fill="#6D788C"/>
<path d="M199.27 135.728C201.819 134.255 203.899 135.431 203.906 138.371L204.293 274.641C204.207 276.24 203.746 277.795 202.945 279.181C202.144 280.567 201.027 281.744 199.685 282.615L110.551 334.103L110.136 187.216L199.27 135.728Z" fill="#E8E9ED"/>
<path d="M83.5461 170.379L110.358 187.079V334.863L83.5461 317.515V170.379Z" fill="#AAAFB9"/>
<path d="M87.9256 167.755L114.887 184.402L110.358 187.079L83.5461 170.379L87.9256 167.755Z" fill="#6D788C"/>
<path d="M96.9714 191.496C98.9571 192.786 100.61 194.527 101.794 196.578C102.978 198.629 103.66 200.932 103.785 203.297C103.772 207.639 100.705 209.387 96.9271 207.206C94.9424 205.915 93.291 204.173 92.1079 202.122C90.9247 200.07 90.2434 197.768 90.1196 195.403C90.131 191.065 93.1995 189.317 96.9714 191.496Z" fill="white"/>
<path d="M96.9714 244.765C98.9571 246.055 100.61 247.796 101.794 249.847C102.978 251.898 103.66 254.201 103.785 256.566C103.772 260.908 100.705 262.658 96.9271 260.475C94.9422 259.185 93.2907 257.442 92.1076 255.391C90.9244 253.339 90.2432 251.037 90.1196 248.672C90.131 244.336 93.1995 242.586 96.9714 244.765Z" fill="white"/>
<path d="M96.9714 296.61C98.9571 297.9 100.61 299.641 101.794 301.692C102.978 303.743 103.66 306.045 103.785 308.411C103.772 312.752 100.705 314.502 96.9271 312.32C94.9424 311.029 93.291 309.287 92.1079 307.235C90.9247 305.184 90.2434 302.882 90.1196 300.516C90.131 296.18 93.1995 294.43 96.9714 296.61Z" fill="white"/>
<path d="M120.351 190.558V247.968L200.357 201.356V144.374L120.351 190.558Z" fill="white"/>
<path d="M466.392 246.675C466.392 246.52 466.385 246.364 466.37 246.208L466.353 245.995L466.346 245.903C466.346 245.847 466.338 245.793 466.332 245.737C466.318 245.58 466.301 245.423 466.281 245.265C466.261 245.106 466.236 244.941 466.211 244.779V244.767V244.752C466.186 244.598 466.161 244.445 466.131 244.291C466.101 244.137 466.065 243.956 466.028 243.787C466.015 243.729 466.001 243.669 465.987 243.611L465.964 243.508C465.947 243.432 465.93 243.356 465.911 243.281C465.868 243.111 465.824 242.94 465.777 242.77C465.741 242.646 465.706 242.523 465.669 242.399L465.649 242.33L465.627 242.259C465.576 242.093 465.523 241.926 465.467 241.759C465.412 241.592 465.356 241.432 465.296 241.268L465.263 241.181L465.236 241.108C465.198 241.004 465.159 240.899 465.118 240.796C465.058 240.639 464.995 240.482 464.93 240.326C464.884 240.217 464.836 240.107 464.787 239.997L464.761 239.935L464.731 239.865C464.663 239.71 464.589 239.554 464.519 239.4C464.449 239.246 464.358 239.062 464.273 238.893C464.262 238.868 464.248 238.843 464.236 238.819C464.225 238.795 464.202 238.755 464.186 238.722C464.116 238.579 464.044 238.451 463.975 238.315C463.888 238.151 463.794 237.99 463.701 237.826C463.653 237.74 463.606 237.653 463.559 237.567C463.54 237.535 463.523 237.5 463.503 237.466C463.42 237.323 463.329 237.193 463.245 237.055C463.114 236.844 462.985 236.627 462.848 236.423C462.825 236.39 462.805 236.354 462.784 236.321C462.594 236.042 462.401 235.768 462.206 235.499L462.178 235.456C462.035 235.268 461.892 235.081 461.75 234.897C461.633 234.754 461.516 234.604 461.396 234.46L461.386 234.447V234.44C461.263 234.297 461.139 234.148 461.014 234.012C460.888 233.876 460.765 233.727 460.64 233.597C460.619 233.575 460.597 233.554 460.577 233.531L460.513 233.464C460.423 233.37 460.335 233.276 460.245 233.178C460.111 233.036 459.975 232.909 459.838 232.777C459.797 232.736 459.753 232.697 459.711 232.658L459.619 232.572C459.55 232.509 459.483 232.445 459.415 232.383C459.272 232.255 459.129 232.131 458.987 232.01C458.924 231.955 458.86 231.905 458.797 231.854L458.701 231.775L458.559 231.658C458.416 231.549 458.273 231.441 458.131 231.336C458.029 231.262 457.925 231.193 457.821 231.116L457.765 231.076L457.713 231.039C457.57 230.946 457.44 230.855 457.303 230.768C457.166 230.681 457.032 230.599 456.895 230.518L456.801 230.462L210.361 88.1049C210.258 88.0459 210.156 87.9888 210.053 87.9336C209.92 87.8623 209.789 87.7909 209.658 87.7281C209.527 87.6653 209.395 87.6025 209.267 87.544C209.139 87.4855 209.009 87.4312 208.88 87.3798C208.752 87.3285 208.619 87.2785 208.491 87.2371C208.362 87.1957 208.231 87.15 208.104 87.1115C207.977 87.073 207.837 87.0344 207.705 87.0016C207.572 86.9688 207.441 86.9388 207.31 86.9131C207.178 86.8874 207.024 86.8617 206.882 86.8432C206.739 86.8246 206.596 86.8089 206.454 86.7989C206.311 86.7889 206.15 86.7847 206.002 86.7847C205.853 86.7847 205.665 86.7932 205.501 86.8089C205.315 86.826 205.129 86.8526 204.946 86.8889C204.717 86.9347 204.492 86.9967 204.273 87.0744C204.002 87.1702 203.741 87.2911 203.492 87.4355L196.294 91.6174C196.542 91.473 196.803 91.3522 197.074 91.2563C197.294 91.1788 197.519 91.1168 197.747 91.0708C197.929 91.0351 198.114 91.008 198.302 90.9894C198.466 90.9752 198.633 90.9666 198.803 90.9666C198.973 90.9666 199.103 90.9666 199.255 90.9809C199.408 90.9952 199.541 91.0066 199.683 91.0251C199.826 91.0437 199.969 91.0665 200.111 91.0951C200.254 91.1236 200.374 91.1493 200.506 91.1836C200.639 91.2178 200.772 91.2521 200.906 91.2935C201.04 91.3348 201.163 91.3734 201.292 91.4191C201.422 91.4647 201.551 91.5133 201.682 91.5618C201.813 91.6103 201.939 91.6674 202.068 91.7259C202.198 91.7844 202.328 91.8458 202.459 91.91C202.591 91.9743 202.722 92.0428 202.855 92.1156L203.163 92.2868L449.593 234.641C449.919 234.83 450.24 235.035 450.559 235.255L450.614 235.295C450.909 235.502 451.202 235.723 451.49 235.956L451.583 236.032C451.868 236.26 452.136 236.501 452.406 236.745L452.499 236.831C452.771 237.088 453.039 237.356 453.3 237.633L453.365 237.7C453.643 237.998 453.915 238.306 454.179 238.624L454.189 238.636C454.457 238.96 454.72 239.294 454.972 239.636L455.001 239.678C455.221 239.979 455.435 240.287 455.643 240.602C455.785 240.809 455.908 241.023 456.039 241.234C456.145 241.405 456.253 241.574 456.353 241.746C456.403 241.832 456.45 241.919 456.496 242.005C456.664 242.302 456.827 242.6 456.981 242.903L457.029 242.997C457.215 243.366 457.392 243.739 457.556 244.114L457.581 244.176C457.741 244.544 457.891 244.915 458.029 245.288L458.056 245.36C458.199 245.741 458.325 246.125 458.442 246.509L458.462 246.578C458.571 246.948 458.67 247.319 458.757 247.687L458.781 247.79C458.869 248.17 458.943 248.551 459.004 248.931V248.951C459.064 249.332 459.111 249.71 459.146 250.086L459.153 250.179C459.182 250.554 459.199 250.927 459.198 251.295L458.703 426.3V426.329C458.703 426.486 458.703 426.641 458.691 426.794C458.68 426.947 458.676 427.101 458.663 427.249C458.65 427.398 458.634 427.562 458.616 427.713C458.597 427.864 458.573 428.023 458.546 428.174C458.519 428.326 458.487 428.491 458.452 428.645C458.416 428.799 458.37 428.978 458.323 429.138C458.276 429.297 458.216 429.482 458.155 429.646C458.085 429.836 458.012 430.018 457.924 430.194C457.817 430.421 457.695 430.641 457.56 430.853C457.143 431.523 456.57 432.083 455.891 432.485L463.091 428.298C463.77 427.897 464.343 427.337 464.76 426.667C464.894 426.455 465.016 426.234 465.124 426.008C465.206 425.833 465.283 425.65 465.355 425.46C465.416 425.295 465.472 425.126 465.523 424.951C465.574 424.777 465.613 424.627 465.651 424.459C465.69 424.291 465.718 424.148 465.746 423.988C465.773 423.828 465.796 423.684 465.814 423.527C465.833 423.37 465.85 423.22 465.863 423.063C465.875 422.906 465.884 422.762 465.891 422.608C465.898 422.454 465.901 422.3 465.901 422.143V422.115L466.398 247.112C466.399 246.969 466.396 246.826 466.392 246.675Z" fill="#6bcafa"/>
<path d="M449.593 234.641C452.393 236.463 454.723 238.922 456.393 241.817C458.062 244.712 459.023 247.96 459.198 251.298L458.703 426.303C458.684 432.422 454.356 434.89 449.033 431.817L202.602 289.465C199.801 287.645 197.469 285.188 195.799 282.294C194.128 279.401 193.165 276.153 192.988 272.816L193.485 97.809C193.502 91.6817 197.83 89.2125 203.161 92.2911L449.593 234.641Z" fill="#34b6f8"/>
<path d="M449.881 240.261C451.305 241.187 452.49 242.438 453.34 243.91C454.189 245.382 454.679 247.034 454.768 248.732L454.267 425.38C454.259 428.497 452.059 429.75 449.347 428.184L201.492 285.003C200.068 284.077 198.882 282.827 198.033 281.355C197.183 279.883 196.694 278.231 196.605 276.534L197.104 99.89C197.114 96.7828 199.321 95.5239 202.024 97.0854L449.881 240.261Z" fill="white"/>
<g opacity="0.26">
<path opacity="0.26" d="M549.39 326.17C550.913 327.16 552.18 328.497 553.088 330.07C553.996 331.643 554.519 333.409 554.614 335.224L554.283 452.24C554.273 455.572 551.915 456.917 549.025 455.248L360.149 346.148C358.624 345.156 357.355 343.818 356.445 342.242C355.535 340.666 355.011 338.897 354.915 337.079L355.248 220.063C355.256 216.73 357.616 215.396 360.514 217.066L549.39 326.17Z" fill="#BEBEBE"/>
</g>
<g opacity="0.51">
<g opacity="0.51">
<path opacity="0.51" d="M437.533 293.987L437.3 376.01L366.994 335.398L367.226 253.375L437.533 293.987Z" fill="#A3A5AE"/>
<g opacity="0.51">
<path opacity="0.51" d="M489.257 357.271L489.114 405.513L447.767 381.632L447.909 333.39L489.257 357.271Z" fill="#A3A5AE"/>
</g>
<g opacity="0.51">
<path opacity="0.51" d="M541.025 386.869L540.882 435.111L499.529 411.224L499.672 362.982L541.025 386.869Z" fill="#A3A5AE"/>
</g>
</g>
<path opacity="0.51" d="M438.688 282.952C439.234 283.307 439.688 283.786 440.014 284.35C440.34 284.914 440.527 285.547 440.561 286.198C440.561 287.392 439.715 287.873 438.675 287.273L365.838 245.198C365.292 244.843 364.837 244.364 364.511 243.8C364.186 243.236 363.999 242.603 363.965 241.952C363.965 240.757 364.811 240.278 365.85 240.877L438.688 282.952Z" fill="#A3A5AE"/>
<g opacity="0.51">
<g opacity="0.51">
<path opacity="0.51" d="M547.323 369.697C547.717 369.953 548.044 370.299 548.278 370.707C548.512 371.114 548.646 371.571 548.668 372.041C548.668 372.897 548.059 373.255 547.315 372.824L452.449 318.016C452.054 317.76 451.725 317.413 451.489 317.005C451.254 316.597 451.118 316.139 451.094 315.668C451.094 314.799 451.703 314.454 452.457 314.891L547.323 369.697Z" fill="#A3A5AE"/>
</g>
<g opacity="0.51">
<path opacity="0.51" d="M547.323 375.623C547.715 375.878 548.042 376.222 548.276 376.627C548.51 377.033 548.644 377.488 548.668 377.955C548.668 378.823 548.059 379.17 547.315 378.739L452.449 323.931C452.053 323.676 451.723 323.329 451.487 322.921C451.252 322.513 451.117 322.054 451.094 321.583C451.094 320.727 451.703 320.38 452.457 320.815L547.323 375.623Z" fill="#A3A5AE"/>
</g>
<g opacity="0.51">
<path opacity="0.51" d="M547.323 381.539C547.717 381.795 548.044 382.141 548.278 382.549C548.512 382.956 548.646 383.413 548.668 383.883C548.668 384.739 548.059 385.096 547.315 384.666L452.449 329.859C452.054 329.602 451.725 329.255 451.489 328.847C451.254 328.438 451.118 327.98 451.094 327.509C451.094 326.641 451.703 326.296 452.457 326.731L547.323 381.539Z" fill="#A3A5AE"/>
</g>
<path opacity="0.51" d="M547.323 357.254C547.716 357.509 548.042 357.853 548.276 358.258C548.51 358.664 548.644 359.119 548.668 359.586C548.668 360.454 548.059 360.799 547.315 360.37L452.449 305.562C452.053 305.306 451.723 304.96 451.487 304.552C451.252 304.144 451.117 303.685 451.094 303.214C451.094 302.358 451.703 302.009 452.457 302.446L547.323 357.254Z" fill="#A3A5AE"/>
<g opacity="0.51">
<path opacity="0.51" d="M548.141 346.593C548.687 346.948 549.142 347.427 549.468 347.991C549.794 348.555 549.981 349.188 550.015 349.839C550.015 351.034 549.168 351.513 548.129 350.914L475.291 308.839C474.745 308.484 474.29 308.005 473.965 307.441C473.639 306.877 473.452 306.244 473.418 305.593C473.418 304.399 474.265 303.918 475.304 304.518L548.141 346.593Z" fill="#A3A5AE"/>
</g>
</g>
</g>
<g opacity="0.32">
<path opacity="0.32" d="M272.107 151.15C273.482 152.043 274.627 153.249 275.447 154.67C276.267 156.091 276.739 157.686 276.824 159.325L276.644 222.896C276.636 225.905 274.515 227.125 271.895 225.608L166.363 164.647C164.986 163.752 163.839 162.543 163.018 161.12C162.197 159.697 161.723 158.099 161.637 156.458L161.817 92.8863C161.825 89.8762 163.957 88.6715 166.574 90.1845L272.107 151.15Z" fill="#6bcafa"/>
</g>
<g opacity="0.45">
<g opacity="0.45">
<path opacity="0.45" d="M185.272 119.312C188.063 121.127 190.385 123.576 192.048 126.46C193.712 129.344 194.671 132.581 194.846 135.906C194.835 137.656 194.494 139.388 193.839 141.01C192.255 144.894 188.977 147.501 185.198 145.319C181.48 143.178 178.272 136.961 176.687 131.332C176.048 129.213 175.694 127.019 175.633 124.808C175.65 118.707 179.967 116.248 185.272 119.312Z" fill="#6bcafa"/>
</g>
<g opacity="0.45">
<path opacity="0.45" d="M194.331 141.798C196.905 145.857 198.35 150.53 198.516 155.334L198.505 159.493C198.505 161.356 197.663 162.618 196.278 162.793C192.841 163.109 189.39 162.358 186.395 160.642C186.038 160.457 185.687 160.267 185.341 160.072C181.113 157.475 177.404 154.117 174.399 150.168C173.042 148.491 172.258 146.424 172.164 144.269L172.175 140.129C172.188 135.87 173.73 132.912 176.198 131.581C176.668 133.193 177.24 134.773 177.91 136.311C179.973 141.061 182.563 144.52 185.201 146.044C186.357 146.799 187.756 147.086 189.116 146.848C190.475 146.609 191.693 145.863 192.523 144.76C193.28 143.875 193.89 142.875 194.331 141.798Z" fill="#6bcafa"/>
</g>
</g>
<g opacity="0.45">
<g opacity="0.45">
<path opacity="0.45" d="M272.351 181.518C272.633 181.702 272.868 181.951 273.036 182.244C273.204 182.536 273.3 182.865 273.316 183.202C273.316 183.817 272.88 184.074 272.343 183.764L204.181 144.391C203.898 144.206 203.662 143.957 203.493 143.664C203.324 143.37 203.226 143.041 203.208 142.703C203.208 142.079 203.645 141.831 204.188 142.145L272.351 181.518Z" fill="#6bcafa"/>
</g>
<g opacity="0.45">
<path opacity="0.45" d="M272.351 188.452C272.632 188.635 272.866 188.882 273.034 189.174C273.202 189.465 273.299 189.792 273.316 190.127C273.316 190.752 272.88 191.001 272.343 190.698L204.181 151.314C203.897 151.129 203.661 150.88 203.492 150.587C203.322 150.293 203.225 149.964 203.208 149.625C203.208 149.01 203.645 148.76 204.188 149.074L272.351 188.452Z" fill="#6bcafa"/>
</g>
<g opacity="0.45">
<path opacity="0.45" d="M272.351 194.032C272.633 194.217 272.868 194.465 273.036 194.758C273.204 195.051 273.3 195.379 273.316 195.717C273.316 196.332 272.88 196.589 272.343 196.279L204.181 156.907C203.898 156.722 203.662 156.473 203.493 156.18C203.324 155.886 203.226 155.557 203.208 155.219C203.208 154.595 203.645 154.347 204.188 154.661L272.351 194.032Z" fill="#6bcafa"/>
</g>
<g opacity="0.45">
<path opacity="0.45" d="M272.351 200.716C272.633 200.9 272.868 201.149 273.036 201.441C273.204 201.734 273.3 202.062 273.316 202.399C273.316 203.016 272.88 203.273 272.343 202.97L204.181 163.588C203.897 163.404 203.661 163.155 203.492 162.862C203.323 162.569 203.226 162.239 203.208 161.901C203.208 161.278 203.645 161.029 204.188 161.342L272.351 200.716Z" fill="#6bcafa"/>
</g>
<g opacity="0.45">
<path opacity="0.45" d="M272.351 207.397C272.633 207.582 272.867 207.831 273.035 208.124C273.203 208.416 273.299 208.745 273.316 209.082C273.316 209.697 272.88 209.954 272.343 209.644L204.181 170.271C203.898 170.086 203.662 169.837 203.493 169.544C203.324 169.251 203.226 168.922 203.208 168.584C203.208 167.959 203.645 167.71 204.188 168.024L272.351 207.397Z" fill="#6bcafa"/>
</g>
<path opacity="0.45" d="M272.351 171.241C272.632 171.424 272.867 171.672 273.035 171.963C273.203 172.254 273.299 172.581 273.316 172.917C273.316 173.541 272.88 173.789 272.343 173.479L204.181 134.106C203.897 133.922 203.661 133.673 203.492 133.379C203.322 133.086 203.225 132.756 203.208 132.418C203.208 131.803 203.645 131.554 204.188 131.867L272.351 171.241Z" fill="#6bcafa"/>
<g opacity="0.45">
<path opacity="0.45" d="M272.938 163.577C273.331 163.832 273.657 164.176 273.891 164.581C274.125 164.987 274.259 165.442 274.283 165.909C274.283 166.765 273.676 167.112 272.93 166.681L220.597 136.451C220.204 136.196 219.878 135.852 219.644 135.447C219.41 135.042 219.276 134.587 219.251 134.119C219.251 133.263 219.859 132.916 220.605 133.347L272.938 163.577Z" fill="#6bcafa"/>
</g>
</g>
<g opacity="0.32">
<path opacity="0.32" d="M329.701 270.663C331.078 271.557 332.224 272.764 333.046 274.185C333.867 275.607 334.34 277.203 334.427 278.843L334.247 342.414C334.239 345.423 332.107 346.639 329.49 345.126L223.958 284.165C222.58 283.27 221.434 282.061 220.612 280.638C219.791 279.214 219.317 277.617 219.23 275.976L219.411 212.404C219.42 209.394 221.551 208.19 224.167 209.701L329.701 270.663Z" fill="#6bcafa"/>
</g>
<path d="M310.21 279.397C313 281.212 315.322 283.661 316.986 286.545C318.65 289.429 319.608 292.665 319.783 295.99C319.773 297.74 319.431 299.472 318.778 301.094C317.193 304.978 313.915 307.586 310.136 305.403C306.418 303.262 303.21 297.044 301.625 291.416C300.986 289.298 300.631 287.104 300.571 284.892C300.588 278.799 304.904 276.332 310.21 279.397Z" fill="#6bcafa"/>
<path d="M319.263 301.884C321.836 305.943 323.28 310.615 323.447 315.419L323.435 319.578C323.435 321.44 322.594 322.701 321.209 322.878C317.772 323.193 314.321 322.442 311.325 320.727C310.969 320.536 310.617 320.346 310.271 320.156C306.044 317.559 302.334 314.201 299.329 310.252C297.973 308.575 297.189 306.508 297.094 304.353L297.105 300.214C297.118 295.956 298.66 292.996 301.128 291.667C301.598 293.279 302.17 294.859 302.84 296.397C304.902 301.147 307.492 304.606 310.131 306.13C311.287 306.885 312.686 307.172 314.046 306.933C315.405 306.695 316.624 305.949 317.454 304.845C318.209 303.96 318.82 302.96 319.263 301.884Z" fill="#6bcafa"/>
<g opacity="0.45">
<g opacity="0.45">
<path opacity="0.45" d="M293.104 285.474C293.387 285.659 293.621 285.908 293.789 286.2C293.958 286.493 294.054 286.821 294.071 287.158C294.071 287.774 293.633 288.031 293.097 287.721L224.936 248.348C224.652 248.163 224.416 247.914 224.247 247.62C224.077 247.327 223.98 246.998 223.962 246.659C223.962 246.036 224.398 245.787 224.942 246.101L293.104 285.474Z" fill="#6bcafa"/>
</g>
<g opacity="0.45">
<path opacity="0.45" d="M293.104 292.404C293.385 292.587 293.62 292.835 293.788 293.126C293.956 293.417 294.053 293.744 294.071 294.079C294.071 294.704 293.633 294.953 293.097 294.65L224.936 255.277C224.652 255.093 224.415 254.844 224.246 254.55C224.076 254.257 223.979 253.927 223.962 253.589C223.962 252.974 224.398 252.732 224.942 253.038L293.104 292.404Z" fill="#6bcafa"/>
</g>
<g opacity="0.45">
<path opacity="0.45" d="M293.104 297.99C293.387 298.175 293.621 298.423 293.789 298.716C293.958 299.009 294.054 299.337 294.071 299.674C294.071 300.291 293.633 300.546 293.097 300.237L224.936 260.864C224.652 260.679 224.416 260.43 224.247 260.136C224.077 259.843 223.98 259.513 223.962 259.175C223.962 258.551 224.398 258.303 224.942 258.617L293.104 297.99Z" fill="#6bcafa"/>
</g>
<g opacity="0.45">
<path opacity="0.45" d="M293.104 304.673C293.386 304.857 293.621 305.106 293.789 305.398C293.957 305.69 294.054 306.019 294.071 306.355C294.071 306.972 293.633 307.229 293.097 306.926L224.936 267.552C224.652 267.368 224.415 267.119 224.246 266.826C224.077 266.532 223.979 266.203 223.962 265.865C223.962 265.241 224.398 264.993 224.942 265.305L293.104 304.673Z" fill="#6bcafa"/>
</g>
<g opacity="0.45">
<path opacity="0.45" d="M293.104 311.354C293.387 311.538 293.621 311.787 293.789 312.08C293.958 312.372 294.054 312.701 294.071 313.038C294.071 313.653 293.633 313.91 293.097 313.6L224.936 274.231C224.652 274.047 224.416 273.798 224.247 273.505C224.078 273.212 223.98 272.883 223.962 272.544C223.962 271.919 224.398 271.671 224.942 271.985L293.104 311.354Z" fill="#6bcafa"/>
</g>
<g opacity="0.45">
<path opacity="0.45" d="M293.104 275.198C293.386 275.381 293.62 275.628 293.789 275.919C293.957 276.211 294.053 276.538 294.071 276.873C294.071 277.497 293.633 277.745 293.097 277.436L224.936 238.063C224.652 237.878 224.415 237.629 224.246 237.336C224.076 237.042 223.979 236.713 223.962 236.374C223.962 235.759 224.398 235.518 224.942 235.823L293.104 275.198Z" fill="#6bcafa"/>
</g>
<g opacity="0.45">
<path opacity="0.45" d="M278.998 259.515C279.391 259.769 279.718 260.113 279.952 260.519C280.186 260.924 280.321 261.379 280.345 261.847C280.345 262.703 279.737 263.05 278.99 262.619L226.658 232.389C226.266 232.134 225.939 231.79 225.705 231.385C225.471 230.979 225.336 230.524 225.311 230.057C225.311 229.201 225.92 228.854 226.667 229.285L278.998 259.515Z" fill="#6bcafa"/>
</g>
</g>
<path d="M244.559 436.642L321.938 391.651L460.038 471.425L382.659 516.416L244.559 436.642Z" fill="#E8E9ED"/>
<path d="M460.039 492.94L460.029 496.633L382.65 541.623L382.66 537.931L460.039 492.94Z" fill="#152642"/>
<path d="M382.66 537.931L382.65 541.623L244.55 461.85L244.56 458.157L382.66 537.931Z" fill="#152642"/>
<path d="M244.559 458.157L321.938 413.166L460.039 492.94L382.659 537.931L244.559 458.157Z" fill="#AEAEAE"/>
<path d="M382.659 537.931L244.559 458.157L321.938 413.166L460.039 492.94L382.659 537.931Z" fill="#05517a"/>
<path d="M459.818 473.212L459.77 490.34L384.187 534.286L384.235 517.158L459.818 473.212Z" fill="white"/>
<path d="M384.237 517.154L384.188 534.281L249.295 456.37L249.343 439.243L384.237 517.154Z" fill="#D6D6D6"/>
<path d="M384.236 517.154L249.344 439.234L324.927 395.287L459.819 473.207L384.236 517.154Z" fill="url(#paint0_linear)"/>
<path d="M460.039 471.425L460.029 475.118L382.65 520.109L382.66 516.416L460.039 471.425Z" fill="#05517a"/>
<path d="M382.66 516.416L382.65 520.109L244.55 440.335L244.56 436.642L382.66 516.416Z" fill="#05517a"/>
<path d="M382.659 516.416L244.559 436.642L321.938 391.651L460.039 471.425L382.659 516.416Z" fill="#152642"/>
<path d="M460.039 471.425L460.029 496.633L457.552 498.074V473.085L460.039 471.425Z" fill="#152642"/>
<path d="M289.476 471.425C289.476 471.425 281.553 478.562 278.158 498.074L289.476 495.766L293.438 506.27C293.438 506.27 299.096 486.41 306.454 479.071L289.476 471.425Z" fill="#6bcafa"/>
<path d="M457.55 455.961L457.54 459.653L380.161 504.644L380.171 500.952L457.55 455.961Z" fill="#B7B7B7"/>
<path d="M380.172 500.952L380.162 504.644L242.06 424.87L242.07 421.178L380.172 500.952Z" fill="#B7B7B7"/>
<path d="M242.07 421.178L319.449 376.187L457.549 455.961L380.17 500.952L242.07 421.178Z" fill="#B7B7B7"/>
<path d="M457.329 436.227L457.28 453.354L381.692 497.315L381.74 480.187L457.329 436.227Z" fill="white"/>
<path d="M381.746 480.18L381.697 497.308L246.805 419.385L246.854 402.258L381.746 480.18Z" fill="#D6D6D6"/>
<path d="M457.55 434.446L457.54 438.138L380.161 483.128L380.171 479.435L457.55 434.446Z" fill="#B7B7B7"/>
<path d="M380.172 479.435L380.162 483.128L242.06 403.355L242.07 399.663L380.172 479.435Z" fill="#B7B7B7"/>
<path d="M380.172 479.435V504.642L242.06 424.87V399.663L380.172 479.435Z" fill="#6D788C"/>
<path d="M363.928 476.476C365.61 477.57 367.01 479.046 368.013 480.784C369.016 482.521 369.594 484.472 369.7 486.476C369.69 490.156 367.089 491.639 363.89 489.79C362.208 488.696 360.808 487.22 359.806 485.481C358.803 483.743 358.226 481.792 358.121 479.788C358.131 476.107 360.731 474.621 363.928 476.476Z" fill="white"/>
<path d="M306.471 444.221C308.153 445.314 309.553 446.79 310.556 448.528C311.559 450.266 312.137 452.217 312.243 454.221C312.233 457.9 309.632 459.382 306.432 457.533C304.75 456.44 303.351 454.964 302.348 453.226C301.346 451.487 300.768 449.537 300.663 447.532C300.673 443.853 303.274 442.366 306.471 444.221Z" fill="white"/>
<path d="M258.979 415.65C260.662 416.743 262.062 418.219 263.065 419.957C264.068 421.696 264.646 423.646 264.751 425.651C264.741 429.329 262.142 430.812 258.941 428.964C257.259 427.869 255.86 426.393 254.857 424.655C253.855 422.916 253.277 420.965 253.172 418.961C253.182 415.286 255.783 413.804 258.979 415.65Z" fill="white"/>
<path d="M242.07 399.663L319.449 354.672L457.549 434.446L380.17 479.437L242.07 399.663Z" fill="#B7B7B7"/>
<path d="M173.89 505.661V507.861C173.89 507.992 173.89 508.125 173.897 508.256L173.89 506.058C173.89 505.926 173.89 505.794 173.89 505.661Z" fill="#64435D"/>
<path d="M173.895 506.058L173.903 508.256C173.927 509.126 174.026 509.991 174.198 510.844V508.646C174.026 507.793 173.927 506.928 173.901 506.058" fill="#684661"/>
<path d="M174.192 508.646V510.844C174.367 511.708 174.61 512.557 174.92 513.383V511.185C174.609 510.36 174.366 509.511 174.192 508.646Z" fill="#6B4864"/>
<path d="M174.925 511.185V513.383C175.259 514.269 175.66 515.128 176.127 515.952V513.753C175.66 512.929 175.259 512.07 174.925 511.184" fill="#6F4A67"/>
<path d="M176.121 513.748V515.948C176.657 516.891 177.263 517.792 177.935 518.643V516.443C177.263 515.593 176.657 514.692 176.122 513.748" fill="#724D6A"/>
<path d="M177.934 516.44V518.64C178.785 519.715 179.72 520.72 180.73 521.647L180.723 519.448C179.714 518.52 178.779 517.515 177.927 516.44" fill="#764F6D"/>
<path d="M180.73 519.451L180.737 521.65C182.491 523.25 184.403 524.667 186.443 525.879V523.68C184.403 522.468 182.491 521.051 180.737 519.451" fill="#795171"/>
<path d="M186.439 523.68V525.879C186.622 525.989 186.804 526.096 186.99 526.204C190.119 527.999 193.429 529.455 196.866 530.549V528.35C193.429 527.256 190.119 525.799 186.99 524.005C186.8 523.897 186.616 523.789 186.439 523.68Z" fill="#7D5474"/>
<path d="M196.866 528.35V530.549C199.659 531.449 202.51 532.159 205.399 532.674V530.476C202.51 529.96 199.659 529.249 196.866 528.35Z" fill="#795171"/>
<path d="M205.4 530.476V532.674C207.29 533.015 209.211 533.284 211.15 533.476V531.277C209.211 531.084 207.29 530.816 205.4 530.476Z" fill="#764F6D"/>
<path d="M211.15 531.284V533.484C212.808 533.647 214.475 533.758 216.151 533.816L216.144 531.618C214.471 531.56 212.8 531.45 211.144 531.284" fill="#724D6A"/>
<path d="M216.153 531.611L216.16 533.809C217.696 533.862 219.238 533.869 220.778 533.832V531.632C219.238 531.67 217.698 531.662 216.159 531.611" fill="#6F4A67"/>
<path d="M220.769 531.632V533.832C222.253 533.795 223.736 533.715 225.21 533.593V531.394C223.735 531.515 222.255 531.594 220.769 531.632Z" fill="#6B4864"/>
<path d="M225.21 531.394V533.593C226.681 533.473 228.143 533.309 229.594 533.104L229.587 530.904C228.137 531.11 226.677 531.273 225.204 531.394" fill="#684661"/>
<path d="M229.592 530.904L229.6 533.104C231.106 532.89 232.596 532.631 234.069 532.326L234.062 530.127C232.592 530.43 231.103 530.689 229.592 530.904Z" fill="#64435D"/>
<path d="M234.062 530.127L234.069 532.326C235.664 531.995 237.234 531.612 238.777 531.173V528.973C237.24 529.412 235.67 529.796 234.069 530.127" fill="#61415A"/>
<path d="M238.764 528.973V531.173C240.644 530.636 242.473 530.02 244.237 529.317L244.23 527.118C242.467 527.814 240.638 528.431 238.757 528.973" fill="#6D788C"/>
<path d="M244.237 527.124L244.245 529.323C246.485 528.445 248.658 527.402 250.745 526.204C259.633 521.066 264.072 514.332 264.052 507.604V505.405C264.071 512.133 259.63 518.871 250.745 524.005C248.658 525.203 246.484 526.246 244.243 527.124" fill="#6D788C"/>
<g opacity="0.22">
<path opacity="0.22" d="M219.041 531.656C243.936 531.585 264.085 519.833 264.044 505.405C264.004 490.977 243.789 479.339 218.893 479.409C193.997 479.479 173.849 491.232 173.889 505.66C173.93 520.088 194.145 531.726 219.041 531.656Z" fill="#6bcafa"/>
</g>
<path d="M187.425 483.347C187.95 483.043 188.488 482.749 189.033 482.464C189.214 482.37 189.401 482.281 189.583 482.188C189.951 482.001 190.321 481.814 190.697 481.635C190.92 481.53 191.145 481.431 191.371 481.328C191.716 481.169 192.063 481.012 192.414 480.861C192.658 480.755 192.906 480.655 193.153 480.554C193.399 480.453 193.619 480.356 193.857 480.269C193.933 480.239 194.014 480.214 194.09 480.184C194.866 479.882 195.659 479.591 196.454 479.32C196.569 479.281 196.689 479.245 196.806 479.207C197.508 478.974 198.218 478.753 198.936 478.545C199.053 478.51 199.165 478.47 199.282 478.436C199.425 478.396 199.568 478.363 199.703 478.325C200.151 478.2 200.602 478.081 201.054 477.966C201.34 477.897 201.612 477.824 201.893 477.757C202.385 477.638 202.883 477.528 203.381 477.421C203.572 477.38 203.759 477.331 203.952 477.291L204.116 477.26C204.566 477.169 205.023 477.084 205.478 477.002C205.738 476.953 205.994 476.902 206.254 476.859C206.825 476.76 207.395 476.673 207.966 476.588C208.108 476.568 208.251 476.542 208.385 476.522H208.411C209.122 476.42 209.836 476.33 210.551 476.251L210.743 476.231C211.396 476.16 212.05 476.096 212.706 476.041H212.742C212.976 476.023 213.21 476.011 213.444 475.994C213.922 475.958 214.398 475.923 214.877 475.897C215.163 475.881 215.462 475.873 215.755 475.86C216.183 475.841 216.622 475.821 217.057 475.81H217.16C217.398 475.81 217.636 475.81 217.873 475.803C218.343 475.794 218.812 475.787 219.281 475.788C219.587 475.788 219.889 475.788 220.194 475.801C220.632 475.801 221.07 475.813 221.508 475.826H221.752C221.955 475.826 222.156 475.847 222.358 475.856C222.861 475.877 223.357 475.901 223.866 475.931C224.169 475.95 224.471 475.973 224.774 475.994C225.257 476.03 225.738 476.07 226.219 476.115C226.388 476.131 226.558 476.14 226.726 476.157C226.842 476.168 226.955 476.185 227.07 476.198C227.828 476.277 228.584 476.367 229.334 476.468C229.444 476.484 229.554 476.494 229.662 476.509C230.518 476.629 231.358 476.766 232.199 476.915C232.279 476.929 232.361 476.939 232.441 476.953C232.661 476.993 232.878 477.04 233.096 477.082C233.488 477.156 233.879 477.231 234.269 477.313C234.587 477.378 234.902 477.456 235.216 477.52C235.598 477.605 235.979 477.692 236.357 477.784C236.672 477.859 236.985 477.939 237.297 478.021C237.671 478.116 238.043 478.215 238.413 478.318C238.724 478.405 239.03 478.493 239.339 478.583C239.704 478.691 240.068 478.801 240.43 478.916C240.59 478.966 240.754 479.011 240.914 479.058C241.025 479.095 241.132 479.137 241.242 479.174C241.902 479.392 242.553 479.62 243.196 479.859C243.323 479.908 243.454 479.95 243.581 480.002C244.336 480.287 245.079 480.59 245.808 480.911C246.001 480.994 246.189 481.082 246.379 481.168C246.936 481.417 247.486 481.676 248.028 481.944C248.232 482.046 248.436 482.146 248.637 482.248C249.334 482.607 250.024 482.975 250.69 483.362L251.232 483.683C251.402 483.786 251.558 483.891 251.724 483.995C251.998 484.164 252.269 484.334 252.531 484.506C252.794 484.679 253.011 484.827 253.245 484.99C253.479 485.153 253.751 485.341 253.995 485.518C254.239 485.695 254.443 485.852 254.663 486.019C254.882 486.186 255.131 486.38 255.357 486.563C255.584 486.746 255.773 486.907 255.977 487.08C256.181 487.252 256.404 487.451 256.617 487.639C256.701 487.715 256.794 487.789 256.877 487.865C257.054 488.03 257.223 488.197 257.396 488.363C257.452 488.417 257.51 488.471 257.564 488.526C257.89 488.847 258.199 489.171 258.497 489.498C258.57 489.576 258.64 489.656 258.71 489.736C258.963 490.021 259.206 490.307 259.44 490.592C259.487 490.652 259.539 490.711 259.583 490.769L259.646 490.846C259.726 490.948 259.788 491.053 259.871 491.155C260.094 491.447 260.312 491.741 260.514 492.038C260.621 492.195 260.72 492.354 260.823 492.512C260.994 492.777 261.161 493.043 261.316 493.31C261.357 493.381 261.406 493.453 261.446 493.521C261.507 493.631 261.557 493.742 261.617 493.852C261.737 494.076 261.854 494.3 261.965 494.527C262.056 494.714 262.144 494.903 262.228 495.098C262.328 495.325 262.423 495.552 262.513 495.779C262.551 495.879 262.6 495.977 262.639 496.077C262.677 496.177 262.697 496.263 262.73 496.363C262.807 496.578 262.872 496.791 262.945 497.012C263.018 497.233 263.065 497.406 263.118 497.603C263.176 497.821 263.228 498.04 263.278 498.26C263.303 498.375 263.339 498.492 263.362 498.608C263.379 498.689 263.386 498.769 263.4 498.849C263.442 499.075 263.475 499.299 263.506 499.524C263.533 499.72 263.56 499.915 263.58 500.109C263.603 500.336 263.616 500.563 263.629 500.79C263.636 500.922 263.653 501.053 263.657 501.183C263.661 501.313 263.657 501.447 263.657 501.578L263.686 511.475C263.686 511.211 263.666 510.948 263.651 510.686C263.639 510.459 263.624 510.233 263.603 510.008C263.583 509.811 263.556 509.615 263.529 509.42C263.497 509.195 263.464 508.971 263.423 508.747C263.386 508.549 263.343 508.352 263.299 508.155C263.255 507.958 263.199 507.718 263.141 507.5C263.082 507.282 263.029 507.106 262.968 506.909C262.907 506.712 262.825 506.481 262.753 506.258C262.684 506.065 262.61 505.873 262.534 505.687C262.444 505.459 262.349 505.232 262.249 505.006C262.165 504.818 262.078 504.63 261.987 504.436C261.877 504.21 261.76 503.986 261.638 503.762C261.541 503.581 261.443 503.399 261.337 503.219C261.182 502.953 261.015 502.687 260.844 502.422C260.743 502.263 260.644 502.105 260.536 501.946C260.333 501.651 260.115 501.357 259.892 501.064C259.795 500.936 259.706 500.806 259.607 500.679C259.56 500.62 259.51 500.562 259.464 500.502C259.23 500.216 258.985 499.931 258.733 499.646C258.663 499.567 258.59 499.487 258.521 499.409C258.223 499.082 257.914 498.758 257.589 498.437C257.533 498.382 257.474 498.328 257.419 498.272C257.168 498.03 256.907 497.79 256.641 497.55C256.433 497.362 256.213 497.175 255.999 496.989C255.785 496.804 255.593 496.645 255.382 496.474C255.171 496.303 254.921 496.11 254.685 495.929C254.45 495.748 254.246 495.595 254.019 495.429C253.792 495.264 253.521 495.075 253.268 494.901C253.014 494.727 252.797 494.577 252.554 494.417C252.29 494.245 252.018 494.075 251.745 493.905C251.404 493.692 251.068 493.477 250.713 493.273C250.045 492.884 249.357 492.518 248.66 492.159C248.459 492.057 248.253 491.957 248.051 491.855C247.508 491.587 246.958 491.328 246.4 491.078C246.209 490.992 246.021 490.905 245.829 490.822C245.099 490.505 244.357 490.2 243.601 489.913C243.474 489.864 243.344 489.82 243.217 489.77C242.575 489.531 241.923 489.303 241.263 489.085C240.993 488.995 240.722 488.908 240.45 488.821C240.089 488.708 239.725 488.597 239.359 488.49C239.052 488.395 238.744 488.306 238.434 488.224C238.065 488.122 237.692 488.023 237.317 487.926C237.005 487.846 236.692 487.766 236.379 487.691C235.999 487.598 235.62 487.512 235.237 487.427C234.922 487.355 234.607 487.284 234.29 487.22C233.901 487.138 233.51 487.063 233.117 486.988C232.818 486.931 232.52 486.874 232.219 486.82C231.38 486.677 230.534 486.535 229.682 486.416C229.574 486.4 229.464 486.389 229.356 486.375C228.603 486.274 227.848 486.184 227.09 486.105C226.805 486.075 226.52 486.048 226.234 486.021C225.753 485.976 225.271 485.936 224.789 485.901C224.487 485.878 224.184 485.857 223.88 485.838C223.378 485.807 222.882 485.784 222.373 485.762C222.087 485.749 221.802 485.735 221.517 485.727C221.079 485.712 220.641 485.708 220.201 485.701C219.898 485.701 219.594 485.69 219.29 485.688C218.821 485.688 218.351 485.695 217.88 485.702C217.608 485.702 217.334 485.702 217.062 485.714C216.634 485.725 216.194 485.747 215.761 485.765C215.475 485.778 215.174 485.785 214.882 485.801C214.404 485.828 213.927 485.864 213.455 485.899C213.21 485.916 212.963 485.929 212.718 485.951C212.061 486.005 211.407 486.068 210.755 486.141L210.561 486.159C209.845 486.239 209.131 486.329 208.421 486.43C208.278 486.452 208.123 486.479 207.973 486.5C207.402 486.586 206.832 486.673 206.261 486.771C206 486.816 205.745 486.868 205.485 486.914C205.03 486.998 204.574 487.081 204.123 487.174C203.876 487.225 203.633 487.281 203.388 487.334C202.89 487.442 202.389 487.552 201.9 487.671C201.615 487.738 201.342 487.813 201.063 487.88C200.611 487.996 200.16 488.114 199.712 488.239C199.455 488.31 199.199 488.383 198.944 488.457C198.227 488.667 197.517 488.888 196.813 489.119C196.696 489.159 196.578 489.194 196.461 489.234C195.66 489.505 194.874 489.794 194.098 490.09C193.783 490.213 193.471 490.34 193.16 490.468C192.914 490.569 192.666 490.669 192.422 490.774C192.07 490.925 191.725 491.083 191.378 491.242C191.154 491.344 190.927 491.443 190.706 491.549C190.329 491.727 189.96 491.914 189.59 492.101C189.408 492.194 189.221 492.284 189.041 492.378C188.496 492.663 187.958 492.957 187.432 493.261C178.626 498.348 174.228 505.039 174.246 511.722L174.219 501.825C174.221 495.127 178.619 488.434 187.425 483.347Z" fill="#6D788C"/>
<path d="M173.602 502.61C173.614 502.84 173.627 503.07 173.652 503.299C173.67 503.499 173.699 503.698 173.726 503.896C173.757 504.124 173.791 504.351 173.833 504.578C173.87 504.779 173.913 504.979 173.958 505.181C174.004 505.382 174.061 505.624 174.119 505.846C174.178 506.067 174.234 506.245 174.295 506.445C174.356 506.645 174.438 506.885 174.513 507.105C174.583 507.301 174.656 507.496 174.734 507.691C174.826 507.922 174.924 508.154 175.02 508.382C175.105 508.575 175.194 508.766 175.286 508.953C175.398 509.183 175.517 509.41 175.64 509.638C175.739 509.821 175.838 510.005 175.945 510.187C176.104 510.459 176.272 510.728 176.446 510.998C176.55 511.159 176.65 511.321 176.759 511.479C176.964 511.78 177.186 512.077 177.412 512.374C177.51 512.505 177.603 512.638 177.706 512.768C177.753 512.828 177.804 512.886 177.848 512.945C178.086 513.239 178.334 513.531 178.592 513.82L178.807 514.06C179.109 514.393 179.425 514.722 179.754 515.047C179.81 515.103 179.868 515.156 179.924 515.21C180.179 515.458 180.446 515.704 180.716 515.947C180.928 516.138 181.144 516.328 181.368 516.517C181.592 516.707 181.781 516.867 181.994 517.04C182.207 517.213 182.462 517.411 182.707 517.594C182.953 517.776 183.152 517.933 183.383 518.102C183.615 518.27 183.888 518.461 184.147 518.638C184.405 518.815 184.625 518.968 184.871 519.129C185.118 519.291 185.415 519.476 185.692 519.649C186.038 519.864 186.381 520.077 186.742 520.291C187.418 520.685 188.117 521.058 188.826 521.422C189.028 521.526 189.235 521.627 189.442 521.728C189.991 522.002 190.549 522.265 191.117 522.518C191.309 522.605 191.501 522.693 191.696 522.779C192.437 523.1 193.19 523.407 193.956 523.701C194.084 523.75 194.217 523.794 194.346 523.844C194.999 524.086 195.659 524.318 196.328 524.539C196.603 524.634 196.879 524.723 197.155 524.806C197.522 524.922 197.891 525.034 198.261 525.143C198.574 525.238 198.888 525.328 199.202 525.412C199.576 525.517 199.954 525.616 200.332 525.713C200.649 525.796 200.967 525.878 201.288 525.955C201.67 526.047 202.057 526.136 202.445 526.222C202.765 526.293 203.086 526.364 203.408 526.433C203.802 526.515 204.197 526.592 204.593 526.665C204.899 526.724 205.203 526.782 205.509 526.837C206.365 526.988 207.221 527.125 208.077 527.248C208.188 527.263 208.302 527.275 208.414 527.291C209.175 527.393 209.939 527.484 210.708 527.563C210.993 527.595 211.278 527.622 211.574 527.649C212.061 527.693 212.551 527.735 213.041 527.77C213.348 527.793 213.653 527.816 213.962 527.834C214.471 527.866 214.98 527.89 215.491 527.911C215.776 527.923 216.062 527.939 216.357 527.947C216.799 527.961 217.241 527.967 217.683 527.973C217.994 527.973 218.305 527.986 218.616 527.986C219.091 527.986 219.568 527.979 220.043 527.971C220.328 527.971 220.599 527.971 220.876 527.96C221.317 527.949 221.755 527.927 222.193 527.909C222.492 527.896 222.791 527.887 223.089 527.872C223.572 527.844 224.054 527.809 224.537 527.773C224.788 527.754 225.042 527.742 225.293 527.72C225.939 527.667 226.577 527.603 227.224 527.533C227.31 527.523 227.397 527.518 227.482 527.508C228.21 527.426 228.934 527.334 229.654 527.232C229.815 527.209 229.975 527.182 230.134 527.158C230.705 527.072 231.276 526.985 231.846 526.887C232.112 526.841 232.374 526.788 232.639 526.744C233.099 526.66 233.56 526.576 234.015 526.483C234.267 526.431 234.517 526.373 234.768 526.319C235.271 526.21 235.774 526.099 236.271 525.979C236.557 525.91 236.842 525.836 237.127 525.766C237.587 525.649 238.044 525.528 238.5 525.402L239.279 525.18C240.007 524.967 240.729 524.742 241.443 524.507C241.56 524.467 241.681 524.432 241.798 524.393C242.61 524.118 243.407 523.822 244.195 523.515C244.514 523.391 244.831 523.263 245.147 523.133C245.397 523.03 245.65 522.929 245.896 522.822C246.252 522.669 246.61 522.509 246.952 522.349C247.18 522.245 247.413 522.144 247.64 522.035C248.021 521.856 248.393 521.666 248.765 521.477C248.952 521.383 249.143 521.292 249.327 521.192C249.881 520.906 250.425 520.608 250.959 520.296C259.901 515.132 264.369 508.336 264.346 501.552L264.375 511.449C264.395 518.233 259.928 525.027 250.988 530.192C250.453 530.501 249.909 530.799 249.356 531.089C249.172 531.184 248.982 531.276 248.797 531.374C248.423 531.562 248.048 531.752 247.667 531.934C247.441 532.041 247.21 532.142 246.983 532.246C246.633 532.406 246.282 532.566 245.924 532.72C245.677 532.826 245.426 532.927 245.176 533.03C244.926 533.133 244.702 533.231 244.463 533.327C244.384 533.358 244.303 533.384 244.225 533.414C243.437 533.721 242.638 534.016 241.826 534.29C241.711 534.33 241.593 534.364 241.476 534.403C240.762 534.641 240.038 534.865 239.307 535.078C239.189 535.112 239.075 535.152 238.956 535.186C238.814 535.226 238.671 535.261 238.528 535.301C238.073 535.426 237.614 535.546 237.153 535.663C236.868 535.736 236.591 535.806 236.307 535.876C235.806 535.996 235.302 536.109 234.796 536.217C234.602 536.26 234.413 536.308 234.226 536.348L234.057 536.38C233.6 536.474 233.139 536.558 232.677 536.644C232.414 536.692 232.152 536.745 231.888 536.786C231.317 536.885 230.731 536.975 230.15 537.06C230.007 537.082 229.865 537.107 229.722 537.129H229.695C228.973 537.232 228.249 537.323 227.521 537.404C227.464 537.404 227.405 537.414 227.348 537.421C226.678 537.494 226.006 537.564 225.331 537.617H225.297C225.067 537.637 224.836 537.647 224.605 537.664C224.113 537.701 223.621 537.738 223.127 537.765C222.833 537.781 222.538 537.788 222.243 537.801C221.801 537.82 221.36 537.841 220.916 537.854H220.812C220.569 537.854 220.325 537.854 220.083 537.863C219.607 537.87 219.131 537.878 218.656 537.877C218.347 537.877 218.037 537.868 217.728 537.864C217.284 537.857 216.839 537.851 216.395 537.838H216.148C215.945 537.831 215.741 537.817 215.537 537.808C215.023 537.787 214.511 537.763 214 537.731C213.695 537.711 213.39 537.69 213.084 537.667C212.592 537.632 212.101 537.591 211.612 537.544C211.441 537.529 211.268 537.519 211.099 537.501C210.982 537.49 210.866 537.473 210.75 537.46C209.981 537.38 209.215 537.289 208.454 537.186L208.117 537.145C207.254 537.023 206.397 536.883 205.549 536.734C205.468 536.719 205.384 536.709 205.302 536.694C205.08 536.654 204.862 536.605 204.641 536.564C204.243 536.488 203.843 536.411 203.448 536.328C203.127 536.261 202.809 536.185 202.491 536.12C202.101 536.033 201.713 535.944 201.328 535.85C201.008 535.773 200.693 535.693 200.377 535.612C199.997 535.513 199.619 535.413 199.244 535.309C198.929 535.222 198.615 535.131 198.302 535.039C197.933 534.931 197.565 534.819 197.198 534.703C197.034 534.651 196.867 534.605 196.705 534.553C196.59 534.516 196.482 534.473 196.369 534.436C195.704 534.215 195.044 533.983 194.389 533.741C194.259 533.692 194.127 533.648 193.998 533.598C193.231 533.307 192.478 532.999 191.739 532.676C191.543 532.592 191.352 532.503 191.158 532.416C190.588 532.162 190.03 531.899 189.485 531.627C189.278 531.524 189.071 531.423 188.867 531.318C188.154 530.956 187.461 530.582 186.784 530.189C186.597 530.081 186.415 529.972 186.232 529.863C186.05 529.753 185.901 529.651 185.733 529.546C185.456 529.374 185.181 529.202 184.914 529.028C184.647 528.853 184.428 528.701 184.188 528.537C183.948 528.372 183.674 528.18 183.425 527.999C183.175 527.817 182.971 527.662 182.749 527.492C182.526 527.322 182.272 527.124 182.042 526.938C181.813 526.753 181.622 526.59 181.416 526.416C181.211 526.242 180.975 526.037 180.764 525.845C180.679 525.768 180.585 525.692 180.502 525.615C180.319 525.448 180.147 525.278 179.973 525.108C179.917 525.054 179.857 525 179.803 524.946C179.474 524.619 179.158 524.29 178.854 523.958C178.781 523.878 178.711 523.797 178.64 523.717C178.383 523.431 178.135 523.137 177.898 522.845L177.756 522.665L177.693 522.588C177.61 522.484 177.542 522.376 177.462 522.272C177.238 521.975 177.017 521.679 176.811 521.379C176.701 521.217 176.6 521.056 176.496 520.895C176.323 520.625 176.154 520.357 175.997 520.086C175.954 520.014 175.904 519.943 175.864 519.872C175.801 519.76 175.75 519.646 175.69 519.535C175.567 519.308 175.449 519.079 175.338 518.851C175.245 518.66 175.157 518.47 175.071 518.28C174.968 518.05 174.871 517.821 174.786 517.588C174.746 517.488 174.696 517.388 174.657 517.287C174.619 517.185 174.597 517.097 174.564 517.001C174.487 516.782 174.414 516.561 174.346 516.34C174.283 516.141 174.225 515.942 174.171 515.741C174.117 515.54 174.058 515.299 174.008 515.076C173.982 514.957 173.945 514.839 173.923 514.721C173.907 514.639 173.898 514.558 173.884 514.476C173.843 514.248 173.808 514.02 173.777 513.791C173.749 513.593 173.721 513.395 173.701 513.196C173.679 512.966 173.666 512.737 173.653 512.507C173.644 512.373 173.627 512.24 173.624 512.107C173.622 511.974 173.617 511.84 173.617 511.706L173.589 501.811C173.567 502.078 173.587 502.343 173.602 502.61Z" fill="#05517a"/>
<path opacity="0.22" d="M251.18 483.072C268.827 493.333 268.734 510.03 250.966 520.293C233.199 530.555 204.392 530.553 186.744 520.293C169.097 510.032 169.186 493.333 186.95 483.072C204.713 472.811 233.528 472.808 251.18 483.072ZM250.491 520.017C267.997 509.906 268.089 493.457 250.703 483.347C233.316 473.238 204.929 473.236 187.425 483.347C169.921 493.458 169.831 509.905 187.222 520.017C204.613 530.13 232.992 530.127 250.491 520.017Z" fill="#6bcafa"/>
<path d="M248.75 526.918C248.75 526.845 248.75 526.775 248.761 526.698C248.772 526.621 248.771 526.556 248.778 526.479C248.785 526.401 248.792 526.336 248.802 526.259C248.812 526.182 248.822 526.107 248.835 526.032V526.022C248.847 525.949 248.859 525.879 248.872 525.803C248.885 525.728 248.904 525.646 248.921 525.568C248.938 525.489 248.956 525.411 248.975 525.331C248.994 525.251 249.016 525.173 249.038 525.093C249.059 525.013 249.073 524.971 249.092 524.91V524.894L249.103 524.854C249.128 524.777 249.152 524.699 249.178 524.622C249.203 524.545 249.23 524.469 249.257 524.392C249.285 524.315 249.312 524.249 249.34 524.172C249.369 524.095 249.399 524.029 249.429 523.954C249.459 523.878 249.476 523.844 249.499 523.79V523.777L249.516 523.738C249.547 523.665 249.58 523.595 249.614 523.521C249.648 523.447 249.69 523.363 249.728 523.284C249.767 523.206 249.819 523.104 249.871 523.016C249.922 522.927 249.978 522.823 250.032 522.73L250.059 522.682L250.093 522.622C250.199 522.441 250.31 522.264 250.427 522.09C250.519 521.947 250.614 521.817 250.713 521.684C250.778 521.596 250.844 521.509 250.911 521.423C250.978 521.337 251.025 521.28 251.083 521.209L251.257 521.006C251.316 520.941 251.374 520.875 251.433 520.812L251.469 520.774L251.484 520.758C251.529 520.711 251.571 520.665 251.617 520.615C251.663 520.565 251.742 520.488 251.807 520.427C251.871 520.365 251.938 520.303 252.005 520.243C252.072 520.183 252.138 520.124 252.206 520.067C252.239 520.039 252.275 520.011 252.309 519.983L252.332 519.964L252.406 519.903L252.604 519.752C252.67 519.705 252.734 519.657 252.801 519.609C252.868 519.56 252.928 519.523 252.992 519.483C253.056 519.443 253.119 519.403 253.185 519.365L253.229 519.339L253.372 519.259C253.434 519.225 253.496 519.194 253.557 519.164C253.618 519.134 253.68 519.104 253.74 519.077C253.8 519.049 253.861 519.024 253.921 519.001C253.981 518.978 254.044 518.952 254.103 518.931L254.136 518.921H254.149L254.283 518.877L254.47 518.825C254.531 518.81 254.594 518.797 254.654 518.784C254.714 518.771 254.787 518.761 254.852 518.753C254.895 518.753 254.938 518.743 254.982 518.738H255.002H255.052C255.123 518.738 255.195 518.731 255.263 518.731C255.332 518.731 255.42 518.731 255.497 518.743C255.584 518.75 255.67 518.763 255.755 518.78H255.764C255.866 518.8 255.966 518.828 256.064 518.862C256.19 518.907 256.312 518.964 256.427 519.031L303.255 546.258C303.049 546.139 302.824 546.054 302.591 546.007C302.341 545.958 302.085 545.945 301.832 545.968H301.812C301.528 545.996 301.248 546.057 300.979 546.151H300.966C300.65 546.261 300.346 546.402 300.057 546.57C299.742 546.754 299.442 546.962 299.16 547.193L299.138 547.21C298.847 547.449 298.572 547.706 298.314 547.981L298.298 547.998C298.028 548.286 297.775 548.589 297.541 548.907C297.305 549.228 297.088 549.561 296.889 549.906L296.862 549.955C296.666 550.294 296.49 550.644 296.332 551.002V551.015C296.175 551.375 296.039 551.744 295.926 552.12V552.135C295.816 552.5 295.73 552.872 295.669 553.249C295.61 553.611 295.581 553.978 295.581 554.345C295.581 554.671 295.611 554.996 295.672 555.317V555.343C295.726 555.617 295.812 555.883 295.927 556.138V556.152C296.018 556.34 296.132 556.516 296.265 556.677C296.307 556.728 296.345 556.783 296.389 556.83C296.532 556.989 296.698 557.126 296.882 557.237L250.059 530.014C249.877 529.903 249.711 529.766 249.568 529.607C249.524 529.558 249.482 529.506 249.443 529.453C249.386 529.389 249.332 529.323 249.282 529.253C249.219 529.154 249.162 529.051 249.112 528.945L249.105 528.929V528.915C249.071 528.842 249.038 528.772 249.009 528.688C248.981 528.604 248.955 528.532 248.931 528.451C248.906 528.37 248.888 528.3 248.871 528.221C248.862 528.188 248.857 528.153 248.849 528.12V528.094C248.849 528.063 248.837 528.031 248.831 528C248.818 527.93 248.807 527.857 248.798 527.784C248.79 527.712 248.782 527.642 248.775 527.566C248.768 527.49 248.765 527.423 248.762 527.353C248.76 527.283 248.762 527.211 248.762 527.135V527.122C248.747 527.054 248.748 526.987 248.75 526.918Z" fill="#152642"/>
<path d="M300.063 546.572C298.754 547.421 297.665 548.569 296.885 549.921C296.105 551.273 295.656 552.79 295.575 554.349C295.583 557.212 297.602 558.363 300.093 556.918C301.402 556.069 302.491 554.921 303.271 553.569C304.051 552.217 304.5 550.7 304.581 549.141C304.572 546.284 302.554 545.129 300.063 546.572Z" fill="#6D788C"/>
<path d="M272.653 369.651L272.634 376.187L145.032 450.376L145.051 443.84L272.653 369.651Z" fill="#C5C5C5"/>
<path d="M145.056 443.84L145.038 450.376L59.9709 401.237L59.9895 394.701L145.056 443.84Z" fill="#898989"/>
<path d="M272.652 369.651L145.055 443.84L59.9885 394.701L187.584 320.513L272.652 369.651Z" fill="white"/>
<path d="M257.661 369.085C257.905 369.166 258.116 369.321 258.267 369.529C258.418 369.736 258.499 369.986 258.501 370.242C258.502 370.499 258.423 370.75 258.275 370.959C258.127 371.168 257.917 371.326 257.674 371.41C257.052 371.726 256.365 371.89 255.668 371.89C254.97 371.89 254.283 371.726 253.661 371.41L179.338 328.474C179.095 328.393 178.883 328.237 178.733 328.029C178.582 327.822 178.501 327.572 178.499 327.315C178.498 327.059 178.577 326.808 178.725 326.599C178.873 326.389 179.083 326.232 179.325 326.148C179.946 325.829 180.633 325.664 181.331 325.664C182.028 325.664 182.716 325.829 183.336 326.148L257.661 369.085Z" fill="#05517a"/>
<path d="M248.6 375.483C248.843 375.564 249.055 375.719 249.206 375.927C249.356 376.135 249.438 376.384 249.439 376.641C249.441 376.898 249.362 377.148 249.214 377.358C249.065 377.567 248.855 377.724 248.613 377.808C247.991 378.124 247.304 378.289 246.607 378.289C245.91 378.289 245.223 378.124 244.601 377.808L170.278 334.873C170.034 334.792 169.823 334.636 169.672 334.429C169.521 334.221 169.44 333.971 169.438 333.715C169.437 333.458 169.516 333.207 169.664 332.998C169.812 332.789 170.023 332.631 170.265 332.547C170.886 332.229 171.574 332.064 172.271 332.064C172.969 332.064 173.657 332.229 174.278 332.547L248.6 375.483Z" fill="#05517a"/>
<path d="M238.329 381.757C238.572 381.838 238.784 381.994 238.934 382.201C239.085 382.409 239.167 382.659 239.168 382.915C239.17 383.172 239.091 383.423 238.942 383.632C238.794 383.841 238.584 383.999 238.342 384.082C237.72 384.398 237.033 384.563 236.336 384.563C235.639 384.563 234.952 384.398 234.33 384.082L159.999 341.145C159.756 341.064 159.544 340.909 159.394 340.701C159.243 340.494 159.161 340.244 159.16 339.988C159.159 339.731 159.238 339.48 159.386 339.271C159.534 339.062 159.744 338.904 159.987 338.82C160.608 338.502 161.295 338.336 161.993 338.336C162.691 338.336 163.378 338.502 164 338.82L238.329 381.757Z" fill="#05517a"/>
<path d="M229.256 388.156C229.499 388.237 229.711 388.392 229.862 388.6C230.012 388.808 230.094 389.057 230.095 389.314C230.097 389.57 230.018 389.821 229.869 390.03C229.721 390.24 229.511 390.397 229.269 390.481C228.647 390.797 227.96 390.962 227.263 390.962C226.566 390.962 225.878 390.797 225.257 390.481L150.934 347.545C150.69 347.464 150.479 347.309 150.328 347.101C150.177 346.894 150.096 346.644 150.094 346.387C150.093 346.131 150.172 345.88 150.32 345.671C150.468 345.462 150.678 345.304 150.921 345.22C151.542 344.902 152.23 344.736 152.927 344.736C153.625 344.736 154.313 344.902 154.934 345.22L229.256 388.156Z" fill="#05517a"/>
<path d="M208.591 398.471C208.834 398.552 209.046 398.707 209.196 398.915C209.347 399.123 209.429 399.372 209.43 399.629C209.432 399.885 209.353 400.136 209.204 400.345C209.056 400.555 208.846 400.712 208.604 400.796C207.982 401.112 207.295 401.277 206.598 401.277C205.901 401.277 205.213 401.112 204.592 400.796L130.269 357.86C130.025 357.779 129.813 357.624 129.663 357.416C129.512 357.209 129.431 356.959 129.429 356.702C129.428 356.446 129.507 356.195 129.655 355.986C129.803 355.777 130.013 355.619 130.256 355.535C130.876 355.217 131.564 355.05 132.262 355.05C132.959 355.05 133.647 355.217 134.267 355.535L208.591 398.471Z" fill="#05517a"/>
<path d="M199.526 404.869C199.77 404.95 199.982 405.106 200.132 405.313C200.283 405.521 200.364 405.771 200.366 406.027C200.367 406.284 200.288 406.535 200.14 406.744C199.992 406.953 199.782 407.111 199.539 407.194C198.918 407.511 198.231 407.676 197.533 407.676C196.836 407.676 196.149 407.511 195.528 407.194L121.204 364.259C120.961 364.178 120.749 364.023 120.599 363.815C120.448 363.607 120.366 363.358 120.365 363.101C120.363 362.844 120.442 362.594 120.591 362.384C120.739 362.175 120.949 362.018 121.191 361.934C121.812 361.616 122.5 361.45 123.197 361.45C123.895 361.45 124.582 361.616 125.203 361.934L199.526 404.869Z" fill="#05517a"/>
<path d="M189.255 411.144C189.499 411.225 189.71 411.38 189.861 411.588C190.012 411.795 190.093 412.045 190.095 412.302C190.096 412.558 190.017 412.809 189.869 413.018C189.721 413.228 189.51 413.385 189.268 413.469C188.646 413.785 187.959 413.949 187.262 413.949C186.564 413.949 185.877 413.785 185.255 413.469L110.932 370.533C110.689 370.452 110.477 370.296 110.327 370.089C110.176 369.881 110.095 369.631 110.093 369.375C110.092 369.118 110.171 368.867 110.319 368.658C110.467 368.449 110.677 368.291 110.919 368.207C111.54 367.889 112.227 367.723 112.925 367.723C113.622 367.723 114.31 367.889 114.93 368.207L189.255 411.144Z" fill="#05517a"/>
<path d="M180.187 417.542C180.43 417.623 180.642 417.779 180.792 417.986C180.943 418.194 181.025 418.444 181.026 418.7C181.028 418.957 180.949 419.207 180.8 419.417C180.652 419.626 180.442 419.784 180.199 419.867C179.578 420.183 178.89 420.348 178.193 420.348C177.496 420.348 176.808 420.183 176.187 419.867L101.863 376.932C101.62 376.851 101.408 376.695 101.257 376.488C101.107 376.28 101.025 376.03 101.024 375.774C101.022 375.517 101.101 375.267 101.249 375.057C101.398 374.848 101.608 374.69 101.85 374.607C102.471 374.289 103.159 374.123 103.856 374.123C104.553 374.123 105.241 374.289 105.862 374.607L180.187 417.542Z" fill="#05517a"/>
<path d="M164.148 427.983C164.391 428.064 164.603 428.219 164.754 428.427C164.904 428.635 164.986 428.884 164.987 429.141C164.989 429.397 164.91 429.648 164.762 429.857C164.613 430.067 164.403 430.224 164.161 430.308C163.539 430.624 162.852 430.789 162.154 430.789C161.457 430.789 160.769 430.624 160.148 430.308L85.8243 387.371C85.5815 387.29 85.3702 387.134 85.22 386.927C85.0698 386.719 84.9883 386.47 84.9869 386.214C84.9855 385.958 85.0642 385.707 85.2121 385.498C85.36 385.289 85.5696 385.131 85.8115 385.047C86.4321 384.729 87.1196 384.562 87.8172 384.562C88.5148 384.562 89.2024 384.729 89.823 385.047L164.148 427.983Z" fill="#05517a"/>
<path d="M154.23 432.256C154.474 432.337 154.686 432.492 154.836 432.7C154.987 432.908 155.069 433.158 155.07 433.414C155.071 433.671 154.992 433.921 154.844 434.131C154.696 434.34 154.486 434.498 154.243 434.581C153.622 434.897 152.934 435.062 152.237 435.062C151.54 435.062 150.852 434.897 150.23 434.581L75.9069 391.646C75.6636 391.565 75.4517 391.409 75.3012 391.202C75.1506 390.994 75.0688 390.744 75.0674 390.488C75.066 390.231 75.145 389.981 75.2933 389.771C75.4415 389.562 75.6517 389.404 75.8941 389.321C76.5152 389.003 77.2029 388.837 77.9005 388.837C78.5982 388.837 79.2859 389.003 79.907 389.321L154.23 432.256Z" fill="#05517a"/>
<path d="M241.704 352.641L191.59 382.791C191.301 382.965 191.081 383.235 190.969 383.553C190.857 383.872 190.859 384.22 190.974 384.537C191.09 384.855 191.313 385.122 191.604 385.293C191.895 385.464 192.237 385.529 192.571 385.476L211.557 382.43C211.797 382.391 212.044 382.414 212.274 382.495C212.503 382.577 212.709 382.715 212.871 382.897C213.034 383.079 213.148 383.299 213.203 383.536C213.259 383.774 213.254 384.022 213.188 384.257L209.631 397.094C209.552 397.378 209.562 397.68 209.658 397.959C209.755 398.238 209.934 398.481 210.172 398.656C210.411 398.831 210.696 398.929 210.991 398.937C211.286 398.946 211.577 398.864 211.825 398.704L262.132 366.019C262.341 365.883 262.512 365.697 262.628 365.476C262.744 365.256 262.801 365.009 262.795 364.76C262.789 364.511 262.718 364.268 262.591 364.054C262.464 363.84 262.284 363.663 262.068 363.538L243.179 352.627C242.954 352.497 242.699 352.43 242.439 352.433C242.18 352.435 241.926 352.507 241.704 352.641Z" fill="#6bcafa"/>
<path d="M504.809 480.293C504.043 479.851 503.24 479.437 502.422 479.047C502.148 478.917 501.86 478.804 501.58 478.68C501.097 478.465 500.62 478.241 500.121 478.044C500.033 478.009 499.94 477.979 499.851 477.945C499.662 477.872 499.469 477.802 499.281 477.735C498.631 477.496 497.972 477.27 497.302 477.06C497.074 476.989 496.849 476.917 496.619 476.848C496.466 476.803 496.321 476.752 496.168 476.705C495.894 476.626 495.607 476.573 495.331 476.499C494.659 476.321 493.986 476.151 493.298 476.001C493.118 475.961 492.946 475.908 492.764 475.87C492.495 475.814 492.218 475.78 491.947 475.727C491.376 475.617 490.796 475.516 490.212 475.424C489.983 475.389 489.757 475.337 489.525 475.305C489.271 475.269 489.01 475.252 488.754 475.219C488.211 475.15 487.667 475.089 487.12 475.036C486.861 475.011 486.606 474.971 486.346 474.949C486.087 474.928 485.858 474.928 485.615 474.911C485.061 474.872 484.507 474.842 483.951 474.822C483.674 474.811 483.401 474.784 483.124 474.777C482.903 474.777 482.683 474.784 482.462 474.777C481.861 474.768 481.262 474.777 480.663 474.784C480.366 474.784 480.069 474.784 479.773 474.784C479.599 474.791 479.426 474.811 479.251 474.819C478.509 474.851 477.771 474.905 477.034 474.962C476.738 474.988 476.44 474.992 476.145 475.022C476.002 475.036 475.868 475.056 475.73 475.071C475.512 475.095 475.295 475.123 475.077 475.149C474.316 475.244 473.562 475.351 472.817 475.469C472.631 475.499 472.443 475.526 472.258 475.557C472.165 475.574 472.071 475.586 471.972 475.603C471.616 475.667 471.272 475.756 470.918 475.828C470.319 475.95 469.717 476.068 469.128 476.211C468.691 476.317 468.272 476.441 467.844 476.558C467.282 476.71 466.72 476.862 466.171 477.034C466.049 477.073 465.921 477.102 465.801 477.14C465.132 477.357 464.476 477.591 463.831 477.837C463.744 477.869 463.663 477.907 463.577 477.941C462.857 478.226 462.151 478.523 461.467 478.84C461.268 478.933 461.069 479.026 460.874 479.125C460.119 479.489 459.38 479.869 458.673 480.28C458.54 480.357 458.407 480.436 458.277 480.514C457.69 480.868 457.136 481.235 456.611 481.608C456.524 481.667 456.437 481.727 456.353 481.789C455.752 482.217 455.193 482.665 454.67 483.12C454.593 483.186 454.516 483.252 454.441 483.319C454.367 483.386 454.25 483.482 454.156 483.564C453.735 483.954 453.347 484.351 452.979 484.753C452.901 484.839 452.837 484.926 452.757 485.013C452.544 485.254 452.329 485.494 452.135 485.74C451.976 485.941 451.835 486.146 451.69 486.349C451.638 486.422 451.583 486.492 451.534 486.563C451.277 486.936 451.035 487.311 450.821 487.691C450.748 487.819 450.688 487.95 450.62 488.08C450.577 488.162 450.536 488.242 450.494 488.323C450.292 488.722 450.111 489.131 449.951 489.549C449.912 489.65 449.885 489.753 449.849 489.856C449.822 489.934 449.797 490.013 449.771 490.093C449.631 490.518 449.514 490.951 449.423 491.39C449.406 491.477 449.397 491.564 449.381 491.651C449.366 491.738 449.357 491.808 449.344 491.885C449.269 492.343 449.221 492.805 449.202 493.268C449.202 493.364 449.202 493.459 449.202 493.554L449.026 555.687C449.032 555.128 449.08 554.57 449.169 554.018C449.18 553.94 449.192 553.861 449.206 553.782C449.3 553.254 449.43 552.733 449.595 552.222C449.621 552.144 449.647 552.065 449.674 551.987C449.855 551.462 450.07 550.95 450.319 550.454C450.359 550.373 450.401 550.293 450.444 550.211C450.717 549.688 451.022 549.181 451.357 548.694C451.407 548.623 451.461 548.552 451.513 548.482C451.837 548.029 452.195 547.584 452.58 547.146C452.657 547.059 452.722 546.97 452.804 546.883C453.265 546.383 453.751 545.907 454.26 545.456C454.336 545.387 454.413 545.322 454.49 545.254C455.014 544.801 455.574 544.358 456.17 543.926C456.256 543.863 456.346 543.802 456.433 543.74C457.081 543.286 457.761 542.841 458.493 542.416C459.199 542.005 459.938 541.626 460.691 541.261C460.888 541.165 461.088 541.073 461.289 540.975C461.974 540.659 462.674 540.357 463.392 540.078C463.479 540.043 463.563 540.005 463.651 539.972C464.413 539.687 465.196 539.42 465.989 539.171C466.539 538.997 467.104 538.846 467.667 538.692C468.095 538.575 468.523 538.452 468.951 538.346C469.54 538.204 470.142 538.085 470.743 537.962C471.186 537.873 471.626 537.771 472.075 537.693C472.261 537.661 472.45 537.634 472.637 537.603C473.383 537.482 474.135 537.376 474.893 537.285C475.111 537.259 475.329 537.23 475.55 537.206C475.978 537.16 476.415 537.135 476.848 537.098C477.587 537.036 478.328 536.982 479.071 536.955C479.54 536.933 480.01 536.923 480.48 536.915C481.08 536.905 481.679 536.899 482.279 536.908C482.776 536.908 483.278 536.929 483.77 536.948C484.325 536.971 484.881 536.999 485.435 537.038C485.937 537.072 486.433 537.115 486.935 537.163C487.485 537.216 488.032 537.277 488.575 537.346C489.062 537.407 489.547 537.477 490.031 537.551C490.613 537.641 491.191 537.744 491.766 537.854C492.218 537.94 492.669 538.028 493.117 538.127C493.803 538.269 494.478 538.448 495.148 538.625C495.576 538.739 496.013 538.845 496.432 538.97C496.662 539.039 496.889 539.113 497.117 539.183C497.787 539.394 498.447 539.62 499.097 539.859C499.287 539.929 499.479 540.002 499.667 540.068C500.259 540.296 500.832 540.55 501.404 540.804C501.68 540.928 501.967 541.04 502.238 541.168C503.06 541.559 503.859 541.972 504.626 542.416C511.046 546.127 514.26 551.006 514.245 555.879L514.421 493.747C514.442 488.884 511.234 484.004 504.809 480.293Z" fill="#05517a"/>
<path d="M517.071 494.395C517.062 494.572 517.05 494.75 517.033 494.928C517.017 495.083 516.996 495.238 516.974 495.392C516.95 495.569 516.923 495.746 516.89 495.923C516.857 496.1 516.829 496.234 516.793 496.39C516.758 496.545 516.715 496.734 516.668 496.905C516.621 497.076 516.579 497.218 516.532 497.375C516.485 497.532 516.422 497.714 516.362 497.884C516.303 498.054 516.25 498.191 516.19 498.342C516.119 498.522 516.047 498.699 515.964 498.878C515.897 499.028 515.822 499.176 515.756 499.324C515.671 499.501 515.578 499.68 515.482 499.855C515.405 499.998 515.328 500.141 515.245 500.284C515.123 500.495 514.992 500.703 514.857 500.912C514.776 501.037 514.698 501.164 514.612 501.288C514.452 501.522 514.28 501.754 514.104 501.985C514.033 502.079 513.962 502.175 513.893 502.27C513.608 502.631 513.301 502.984 512.977 503.339C512.893 503.431 512.802 503.522 512.713 503.615C512.459 503.88 512.196 504.144 511.919 504.406C511.793 504.524 511.668 504.642 511.536 504.761C511.372 504.904 511.203 505.056 511.031 505.202C510.86 505.348 510.71 505.475 510.545 505.609C510.38 505.743 510.181 505.894 509.994 506.037C509.807 506.18 509.649 506.301 509.471 506.431C509.292 506.561 509.078 506.716 508.877 506.849C508.676 506.982 508.506 507.105 508.314 507.23C508.121 507.356 507.894 507.498 507.679 507.633C507.409 507.8 507.144 507.968 506.862 508.132C506.098 508.576 505.292 508.989 504.484 509.381C504.271 509.484 504.056 509.585 503.84 509.684C503.097 510.028 502.339 510.353 501.558 510.657C501.464 510.693 501.374 510.734 501.272 510.77C500.449 511.084 499.602 511.366 498.745 511.636C498.15 511.823 497.541 511.989 496.931 512.154C496.468 512.28 496.011 512.414 495.54 512.528C494.901 512.682 494.257 512.814 493.598 512.944C493.118 513.041 492.646 513.149 492.161 513.229C491.957 513.263 491.752 513.293 491.548 513.326C490.741 513.457 489.929 513.572 489.111 513.67C488.874 513.699 488.637 513.73 488.398 513.756C487.933 513.806 487.465 513.833 486.998 513.871C486.198 513.938 485.395 513.997 484.59 514.033C484.082 514.054 483.573 514.065 483.064 514.074C482.414 514.087 481.766 514.091 481.118 514.084C480.581 514.075 480.043 514.06 479.505 514.038C478.904 514.014 478.303 513.984 477.706 513.943C477.161 513.904 476.618 513.856 476.077 513.8C475.484 513.743 474.894 513.677 474.306 513.603C473.778 513.536 473.252 513.462 472.728 513.38C472.1 513.285 471.475 513.176 470.853 513.053C470.363 512.961 469.874 512.864 469.389 512.758C468.647 512.595 467.917 512.411 467.192 512.218C466.726 512.094 466.255 511.98 465.797 511.845C465.547 511.77 465.302 511.692 465.055 511.613C464.33 511.387 463.617 511.143 462.915 510.883C462.71 510.807 462.5 510.74 462.296 510.657C461.656 510.409 461.038 510.135 460.42 509.859C460.119 509.726 459.808 509.605 459.514 509.465C458.626 509.037 457.76 508.596 456.929 508.116C453.517 506.283 450.622 503.618 448.513 500.368C447.781 499.172 447.234 497.873 446.891 496.514C446.81 496.187 446.743 495.859 446.69 495.531C446.583 494.878 446.53 494.217 446.531 493.555L446.356 555.688C446.34 560.96 449.811 566.24 456.758 570.246C457.588 570.727 458.453 571.174 459.342 571.596C459.637 571.739 459.948 571.858 460.248 571.99C460.774 572.224 461.29 572.467 461.832 572.681C461.928 572.718 462.028 572.751 462.125 572.788C462.329 572.867 462.537 572.938 462.744 573.014C463.446 573.273 464.159 573.517 464.884 573.746C465.129 573.823 465.373 573.901 465.621 573.976C465.787 574.024 465.947 574.08 466.112 574.127C466.407 574.211 466.72 574.27 467.019 574.35C467.746 574.542 468.474 574.726 469.216 574.889C469.412 574.932 469.599 574.99 469.795 575.032C470.081 575.092 470.386 575.13 470.679 575.186C471.302 575.304 471.925 575.414 472.556 575.513C472.805 575.551 473.049 575.606 473.301 575.641C473.576 575.681 473.857 575.7 474.134 575.735C474.721 575.81 475.311 575.875 475.903 575.932C476.188 575.96 476.46 576.004 476.741 576.027C477.022 576.05 477.269 576.051 477.533 576.069C478.131 576.111 478.729 576.141 479.331 576.165C479.63 576.177 479.928 576.206 480.229 576.214C480.468 576.214 480.707 576.206 480.943 576.214C481.592 576.224 482.238 576.214 482.887 576.205C483.209 576.205 483.532 576.212 483.853 576.205C484.041 576.205 484.228 576.175 484.415 576.168C485.221 576.132 486.02 576.074 486.821 576.007C487.14 575.981 487.461 575.975 487.779 575.944C487.921 575.928 488.074 575.907 488.222 575.891C488.461 575.865 488.696 575.834 488.936 575.805C489.754 575.71 490.567 575.596 491.374 575.461C491.578 575.429 491.783 575.399 491.986 575.363L492.289 575.316C492.673 575.246 493.045 575.149 493.431 575.072C494.081 574.941 494.732 574.812 495.369 574.658C495.841 574.544 496.299 574.41 496.764 574.283C497.372 574.117 497.98 573.953 498.573 573.766C498.705 573.724 498.844 573.694 498.974 573.652C499.696 573.418 500.401 573.165 501.103 572.899C501.197 572.864 501.288 572.822 501.388 572.785C502.165 572.483 502.923 572.156 503.67 571.815C503.887 571.715 504.102 571.614 504.314 571.511C505.13 571.117 505.929 570.706 506.693 570.262L507.121 570.009C507.255 569.928 507.379 569.844 507.511 569.762C507.725 569.628 507.939 569.495 508.144 569.36C508.35 569.224 508.525 569.104 508.715 568.976C508.904 568.847 509.113 568.7 509.305 568.561C509.498 568.421 509.658 568.299 509.83 568.167C510.003 568.034 510.201 567.881 510.381 567.738C510.561 567.596 510.706 567.47 510.866 567.335C511.026 567.199 511.208 567.04 511.374 566.891C511.439 566.832 511.516 566.774 511.576 566.714C511.636 566.654 511.692 566.595 511.755 566.537C512.031 566.275 512.295 566.011 512.549 565.744C512.636 565.653 512.728 565.563 512.812 565.47C513.136 565.118 513.442 564.757 513.728 564.401L513.763 564.361C513.825 564.282 513.877 564.2 513.939 564.122C514.114 563.889 514.288 563.656 514.449 563.421C514.534 563.297 514.611 563.173 514.691 563.048C514.833 562.839 514.957 562.629 515.081 562.416C515.113 562.362 515.151 562.308 515.183 562.252C515.231 562.165 515.271 562.078 515.317 561.991C515.412 561.814 515.505 561.635 515.592 561.457C515.665 561.314 515.735 561.161 515.799 561.013C515.879 560.835 515.954 560.655 516.026 560.476C516.057 560.398 516.096 560.319 516.124 560.241C516.153 560.162 516.171 560.098 516.197 560.02C516.258 559.848 516.314 559.677 516.367 559.506C516.42 559.335 516.461 559.196 516.509 559.041C516.558 558.885 516.596 558.697 516.635 558.524C516.655 558.431 516.683 558.34 516.702 558.248C516.715 558.184 516.721 558.121 516.732 558.057C516.765 557.88 516.79 557.702 516.816 557.525C516.838 557.371 516.857 557.218 516.873 557.064C516.892 556.884 516.902 556.704 516.912 556.526C516.912 556.421 516.932 556.319 516.935 556.216C516.937 556.113 516.935 556.009 516.935 555.905L517.11 493.772C517.097 493.979 517.081 494.186 517.071 494.395Z" fill="#34b6f8"/>
<path d="M506.69 479.2C520.497 487.175 520.579 500.155 506.862 508.131C493.144 516.106 470.747 516.102 456.939 508.131C443.132 500.159 443.06 487.18 456.777 479.204C470.493 471.228 492.884 471.224 506.69 479.2ZM458.821 507.032C471.587 514.407 492.277 514.407 504.96 507.032C517.644 499.657 517.576 487.668 504.817 480.293C492.058 472.918 471.36 472.918 458.677 480.293C445.993 487.668 446.07 499.663 458.828 507.032" fill="#6D788C"/>
<path d="M449.544 496.316C449.544 496.316 481.538 471.932 514.137 496.243C514.137 496.243 510.887 512.557 479.917 512.514C452.745 512.494 449.544 496.316 449.544 496.316Z" fill="#152642"/>
<path opacity="0.31" d="M474.472 512.141C474.472 512.141 444.371 502.494 456.611 481.436C468.851 460.378 517.875 457.682 508.415 428.267C498.956 398.852 448.643 406.097 461.71 375.693C461.71 375.693 471.569 397.759 495.455 383.279C519.341 368.799 538.093 441.395 512.738 461.992C487.382 482.59 507.349 492.431 507.984 498.769C508.619 505.108 493.516 516.298 474.472 512.141Z" fill="white"/>
<path d="M511.716 512.525C511.716 512.525 541.025 506.27 541.025 531.612C541.025 556.125 524.992 557.775 514.253 555.889" stroke="#34b6f8" stroke-width="6.554" stroke-miterlimit="10"/>
<path d="M370.834 444.368H366.062V453.618H370.834V444.368Z" fill="#EFDDD4"/>
<path d="M366.062 450.975C366.062 450.975 363.824 456.753 368.447 456.753C373.071 456.753 373.201 453.613 378.737 449.144C382.405 446.178 375.061 444.815 371.429 447.574C368.036 450.164 367.63 452.318 366.062 450.975Z" fill="#152642"/>
<path d="M390.76 456.466H385.988V465.716H390.76V456.466Z" fill="#EFDDD4"/>
<path d="M385.988 463.073C385.988 463.073 383.753 468.85 388.375 468.85C392.997 468.85 393.128 465.71 398.665 461.242C402.332 458.276 394.988 456.913 391.356 459.672C387.965 462.262 387.558 464.416 385.988 463.073Z" fill="#152642"/>
<path d="M362.061 352.198C362.061 352.198 356.078 378.42 368.447 382.791C380.817 387.161 370.834 352.198 370.834 352.198H362.061Z" fill="#FFE7D1"/>
<path d="M393.606 382.133L392.18 458.944C392.118 459.451 391.957 459.942 391.704 460.386C391.451 460.83 391.112 461.219 390.706 461.531C390.301 461.842 389.838 462.07 389.344 462.2C388.85 462.33 388.334 462.36 387.828 462.289C387.322 462.217 386.836 462.046 386.397 461.784C385.958 461.522 385.576 461.175 385.273 460.763C384.97 460.351 384.752 459.883 384.632 459.386C384.511 458.89 384.492 458.374 384.573 457.869V429.038L379.295 404.688C379.295 404.688 378.043 412.924 376.075 423.13C374.108 433.337 372.316 447.121 372.316 447.121C372.294 447.652 372.163 448.173 371.931 448.651C371.698 449.128 371.369 449.553 370.965 449.897C370.561 450.242 370.09 450.499 369.581 450.652C369.073 450.806 368.538 450.853 368.011 450.79C367.164 450.576 366.417 450.075 365.897 449.372C365.377 448.67 365.115 447.809 365.158 446.936C365.124 445.029 365.092 443.101 365.112 441.151C365.158 437.021 365.336 430.419 365.873 420.527C365.873 420.527 364.446 382.48 370.346 373.526L393.606 382.133Z" fill="#05517a"/>
<path d="M434.055 353.683L437.112 352.986C437.569 352.882 437.99 352.655 438.328 352.33C438.666 352.005 438.91 351.594 439.033 351.141C439.155 350.688 439.152 350.21 439.024 349.759C438.896 349.308 438.647 348.9 438.304 348.579L436.735 347.104C436.648 347.023 436.579 346.923 436.534 346.813C436.488 346.703 436.467 346.584 436.471 346.465C436.476 346.345 436.506 346.228 436.559 346.121C436.612 346.015 436.688 345.921 436.781 345.846L439.986 343.249C440.269 342.977 440.445 342.611 440.479 342.219C440.514 341.828 440.407 341.437 440.176 341.118C439.947 340.922 439.671 340.788 439.374 340.732C439.078 340.675 438.772 340.697 438.487 340.795C438.201 340.893 437.947 341.065 437.748 341.292C437.549 341.519 437.414 341.794 437.354 342.09C435.859 343.264 434.644 344.214 433.154 345.389L430.016 345.884L429.901 349.776L433.261 353.433C433.361 353.54 433.486 353.619 433.625 353.663C433.764 353.707 433.912 353.714 434.055 353.683Z" fill="#FFE7D1"/>
<path d="M395.094 354.778C395.094 354.778 401.836 371.348 406.526 371.348C411.217 371.348 431.885 357.564 433.346 353.457L429.975 349.791C429.975 349.791 414.897 357.711 409.171 362.256C409.171 362.256 405.057 355.364 402.857 353.897C400.658 352.43 395.291 350.674 395.094 354.778Z" fill="#FFE7D1"/>
<path d="M384.659 330.933C384.659 330.933 387.702 329.683 393.606 336.845C399.511 344.007 406.491 354.925 409.176 359.042L399.512 366.384L393.786 357.074L395.038 382.498C395.038 382.498 375.174 395.21 367.837 376.231V358.8C366.258 358.796 364.706 358.389 363.328 357.617C361.95 356.844 360.792 355.733 359.964 354.388C359.964 354.388 361.753 330.395 371.416 327.889C381.08 325.383 384.659 330.933 384.659 330.933Z" fill="#34b6f8"/>
<path d="M395.689 310.993C395.689 316.809 391.067 325.462 385.254 325.462C379.44 325.462 374.64 316.809 374.64 310.993C374.672 308.221 375.795 305.574 377.766 303.626C379.736 301.677 382.394 300.585 385.165 300.585C387.935 300.585 390.593 301.677 392.563 303.626C394.534 305.574 395.657 308.221 395.689 310.993Z" fill="#FFE7D1"/>
<path d="M376.399 313.689H384.569V331.688C384.569 332.717 384.16 333.703 383.433 334.429C382.706 335.156 381.721 335.565 380.693 335.565H380.275C379.247 335.565 378.262 335.156 377.535 334.429C376.808 333.703 376.4 332.717 376.399 331.688V313.689Z" fill="#FFE7D1"/>
<path d="M388.819 309.874C388.819 309.874 397.824 318.971 398.967 312.962C400.11 306.953 394.526 301.878 394.526 301.878C394.526 301.878 403.407 304.76 402.011 300.464C400.616 296.167 387.93 297.943 387.93 297.943C387.93 297.943 387.473 294.089 385.165 295.126C382.857 296.162 382.729 299.72 382.729 299.72C382.729 299.72 378.923 296.928 377.4 298.578C375.878 300.228 378.797 301.497 378.797 301.497C378.797 301.497 370.423 303.401 371.82 310.632C373.216 317.862 376.259 323.45 381.968 322.562C381.968 322.562 377.242 319.728 379.351 312.958C381.459 306.188 383.997 310.246 383.744 311.388C383.492 312.53 381.08 314.561 383.617 315.831C386.155 317.101 388.819 309.874 388.819 309.874Z" fill="#152642"/>
<path d="M64.717 275.61C64.717 275.61 79.2279 299.397 75.7757 305.583C72.3234 311.769 59.9894 281.652 59.9894 281.652L64.717 275.61Z" fill="#FFE7D1"/>
<path d="M27.1416 273.648C22.7865 278.882 18.9155 284.502 15.5765 290.437C10.9117 299.105 27.6138 290.37 32.1716 282.016L27.1416 273.648Z" fill="#E6BC98"/>
<path d="M52.5115 259.018C52.5115 259.018 64.4945 259.823 71.3063 283.457C71.3616 283.648 71.3491 283.851 71.2711 284.034C71.193 284.216 71.0542 284.365 70.8783 284.457L62.8725 288.564C62.7639 288.62 62.6444 288.651 62.5224 288.656C62.4005 288.66 62.279 288.638 62.1666 288.59C62.0542 288.543 61.9535 288.471 61.8716 288.381C61.7898 288.29 61.7287 288.183 61.6928 288.066L59.7384 281.736L60.6599 289.699L62.1079 315.924C62.1079 315.924 30.3499 321.466 30.3499 302.993C30.3499 302.993 38.1603 300.709 38.1603 292.957L37.1846 280.225L29.4512 287.03C29.33 287.136 29.1885 287.216 29.0353 287.265C28.8821 287.315 28.7205 287.332 28.5603 287.317C28.4001 287.302 28.2447 287.254 28.1035 287.177C27.9624 287.099 27.8384 286.994 27.7393 286.867L21.9147 279.36C21.7554 279.157 21.6674 278.907 21.6643 278.649C21.6612 278.391 21.7432 278.139 21.8976 277.932C24.26 274.778 34.0618 262.219 42.44 259.318C52.0378 255.986 52.5115 259.018 52.5115 259.018Z" fill="#6bcafa"/>
<path d="M32.0846 243.705C32.0846 249.519 36.7067 258.173 42.5184 258.173C48.3302 258.173 53.1334 249.519 53.1334 243.705C53.1497 242.312 52.8894 240.929 52.3678 239.637C51.8461 238.346 51.0735 237.17 50.0946 236.179C49.1157 235.188 47.95 234.402 46.6651 233.865C45.3802 233.328 44.0015 233.052 42.609 233.052C41.2166 233.052 39.8379 233.328 38.553 233.865C37.268 234.402 36.1024 235.188 35.1235 236.179C34.1446 237.17 33.3719 238.346 32.8503 239.637C32.3287 240.929 32.0684 242.312 32.0846 243.705Z" fill="#FFE7D1"/>
<path d="M47.4971 268.277H47.0791C46.5701 268.277 46.0661 268.176 45.5959 267.982C45.1256 267.787 44.6983 267.501 44.3384 267.141C43.9785 266.781 43.693 266.353 43.4982 265.883C43.3034 265.412 43.2032 264.908 43.2032 264.399V246.401H51.373V264.399C51.373 265.427 50.9647 266.414 50.2378 267.141C49.5109 267.868 48.5251 268.277 47.4971 268.277V268.277Z" fill="#FFE7D1"/>
<path d="M32.1717 242.37C31.1916 241.491 30.9933 247.408 38.8765 248.987C38.5278 248.804 38.2195 248.552 37.9698 248.247C37.7201 247.943 37.5341 247.591 37.4228 247.213C37.3116 246.835 37.2774 246.438 37.3223 246.047C37.3671 245.655 37.4901 245.277 37.6839 244.934C38.2114 246.247 39.1517 247.353 40.3628 248.084C41.574 248.815 42.9901 249.132 44.3972 248.987C44.3972 248.987 42.032 248.378 44.3972 244.934C46.7625 241.49 44.848 253.623 47.2846 251.7C49.7211 249.778 45.617 244.39 48.2604 243.827C50.9038 243.265 51.3046 249.942 50.316 252.621C50.316 252.621 57.1463 246.028 55.6371 240.109C54.1278 234.19 52.9266 230.759 46.7924 228.134L47.4272 230.838C47.4272 230.838 42.343 225.478 34.3985 229.44L30.2002 233.174L37.3415 232.762C37.3415 232.762 29.8064 234.526 29.4127 243.827L32.1717 242.37Z" fill="#152642"/>
<path d="M60.2662 308.528C60.2662 308.528 75.7757 314.808 75.7757 331.804C75.7757 348.8 20.7535 340.672 20.7535 340.672V333.281C20.7535 333.281 47.6598 331.314 65.8041 329.183C58.5914 326.582 51.6629 323.251 45.1262 319.242C45.1262 319.242 37.002 308.528 60.2662 308.528Z" fill="#05517a"/>
<path d="M37.7409 308.528C37.7409 308.528 17.7991 282.296 12.2598 287.118C1.94014 296.11 15.2142 324.235 39.2217 342.614L43.6526 338.823L20.7578 311.152C20.7578 311.152 40.6996 321.459 45.1305 319.242C49.5614 317.026 37.7409 308.528 37.7409 308.528Z" fill="#05517a"/>
<path d="M20.7535 333.281C20.7535 333.281 7.82896 327.001 4.87457 331.434C1.92018 335.867 6.38243 342.045 20.7535 340.672C35.1246 339.299 20.7535 333.281 20.7535 333.281Z" fill="#152642"/>
<path d="M17.5224 331.905C17.5224 331.905 22.9519 330.418 24.474 333L21.1416 333.451L17.5224 331.905Z" fill="#152642"/>
<path d="M30.3557 302.986L32.7808 309.852C42.4058 317.797 62.038 314.562 62.038 314.562L61.3433 301.976L36.9064 297.849C35.4182 300.3 33.0899 302.125 30.3557 302.986Z" fill="#05517a"/>
<path d="M76.3063 302.114C75.4019 298.27 70.1393 302.114 70.1393 302.114L56.0322 311.391C55.7498 311.578 55.4148 311.669 55.0767 311.651C54.7387 311.632 54.4155 311.506 54.1548 311.29C53.092 310.397 51.3331 309.139 50.5884 309.847C50.0292 310.382 50.9679 311.182 52.015 311.838C49.2432 311.758 44.3116 312.504 44.4842 314.574C45.0049 320.996 56.0778 314.564 56.0778 314.564C72.3833 310.141 77.2122 305.956 76.3063 302.114Z" fill="#FFE7D1"/>
<path d="M22.3013 287.873C18.2956 284.291 9.86177 276.798 2.78036 270.843C2.49383 270.789 2.19907 270.796 1.9154 270.863C1.63173 270.931 1.36556 271.058 1.1343 271.236C0.903043 271.413 0.711934 271.638 0.573493 271.895C0.435052 272.152 0.352398 272.435 0.33096 272.726L0.263916 273.646C0.330964 273.745 12.6849 291.787 20.3698 292.486C20.9186 292.521 21.4647 292.384 21.9321 292.094C22.3994 291.804 22.7648 291.376 22.9773 290.868C23.1898 290.361 23.2389 289.799 23.1177 289.263C22.9966 288.726 22.7112 288.24 22.3013 287.873Z" fill="#FFE7D1"/>
<path d="M2.34527 264.677L9.18274 266.314C9.25786 266.332 9.32671 266.37 9.38197 266.424C9.43722 266.478 9.47683 266.546 9.49658 266.621L13.3483 281.314C13.3681 281.392 13.3651 281.475 13.3396 281.552C13.3141 281.63 13.2672 281.698 13.2044 281.749C13.1416 281.801 13.0654 281.833 12.9848 281.843C12.9042 281.853 12.8224 281.84 12.7491 281.805L5.63918 278.338C5.58508 278.311 5.53717 278.274 5.49858 278.228C5.45999 278.181 5.43158 278.127 5.41521 278.069L1.83598 265.205C1.81688 265.134 1.81656 265.059 1.83503 264.987C1.8535 264.916 1.89013 264.85 1.94139 264.797C1.99265 264.744 2.05678 264.705 2.12755 264.684C2.19832 264.663 2.27332 264.661 2.34527 264.677Z" fill="#05517a"/>
<path d="M0.229691 274.967C0.031573 274.421 -0.0337991 273.837 0.0389972 273.262C0.111793 272.686 0.320668 272.136 0.64828 271.658C0.975892 271.179 1.4128 270.786 1.92278 270.51C2.43276 270.235 3.0011 270.084 3.58066 270.072C5.8175 270.008 8.13708 270.468 8.72625 272.499C9.9431 276.682 1.37236 278.031 0.263931 275.068L0.229691 274.967Z" fill="#FFE7D1"/>
</g>
<defs>
<linearGradient id="paint0_linear" x1="249.344" y1="456.22" x2="459.819" y2="456.22" gradientUnits="userSpaceOnUse">
<stop stop-color="#1E13A5"/>
<stop offset="1" stop-color="#080533"/>
</linearGradient>
<clipPath id="clip0">
<rect width="601" height="639" fill="white"/>
</clipPath>
</defs>
</svg>
