<svg width="441" height="114" viewBox="0 0 441 114" fill="none" xmlns="http://www.w3.org/2000/svg">
<path d="M29.9761 113.384C24.0985 113.384 18.882 112.208 14.3268 109.857C9.8451 107.433 6.3185 104.053 3.74702 99.7184C1.24901 95.3836 0 90.4611 0 84.9508C0 79.6609 1.32248 74.8485 3.96743 70.5137C6.61238 66.1789 10.2125 62.7625 14.7677 60.2645C19.3229 57.7665 24.3923 56.5175 29.9761 56.5175C37.1028 56.5175 42.7233 57.9869 46.8377 60.9258L44.7438 75.5832C40.5559 74.3342 37.1028 73.7097 34.3844 73.7097C30.8578 73.7097 28.0659 74.7383 26.0087 76.7955C23.9515 78.7792 22.9229 81.4976 22.9229 84.9508C22.9229 88.4039 23.9515 91.1591 26.0087 93.2162C28.0659 95.2734 30.7843 96.302 34.164 96.302C37.1028 96.302 40.5559 95.6775 44.5234 94.4285L46.6173 109.857C44.1193 111.106 41.5845 111.988 39.0131 112.502C36.4416 113.09 33.4293 113.384 29.9761 113.384Z" fill="#283846"/>
<path d="M82.635 113.384C76.5369 113.384 71.1 112.172 66.3244 109.747C61.6223 107.249 57.9487 103.87 55.3038 99.6082C52.6588 95.2734 51.3364 90.3876 51.3364 84.9508C51.3364 79.367 52.6956 74.4077 55.414 70.0729C58.1324 65.7381 61.806 62.3952 66.4346 60.0441C71.0633 57.6931 76.2063 56.5175 81.8635 56.5175C87.3004 56.5175 91.9291 57.7298 95.7495 60.1543C99.6435 62.5054 102.546 65.7381 104.456 69.8525C106.366 73.8934 107.321 78.4486 107.321 83.5181C107.321 84.8406 107.248 85.7957 107.101 86.3834L74.0389 90.6815C74.9205 93.253 76.3532 95.1265 78.3369 96.302C80.3206 97.4041 82.9289 97.9551 86.1616 97.9551C91.1576 97.9551 96.5577 96.6694 102.362 94.0979L105.117 108.866C98.2843 111.878 90.7903 113.384 82.635 113.384ZM90.2392 76.7955C89.0637 72.1668 86.2718 69.8525 81.8635 69.8525C79.2186 69.8525 77.1247 70.8443 75.5818 72.8281C74.0389 74.8118 73.2307 77.3833 73.1572 80.5425L90.2392 76.7955Z" fill="#283846"/>
<path d="M119.517 70.9546H112.574V57.289H119.517V52.6603C119.517 44.505 121.464 38.3335 125.358 34.1456C129.325 29.9578 134.836 27.8639 141.889 27.8639C147.546 27.8639 152.799 29.2965 157.649 32.1619L156.877 47.0398C152.616 45.3499 149.052 44.505 146.187 44.505C143.983 44.505 142.293 45.056 141.118 46.1581C139.942 47.1867 139.354 48.6929 139.354 50.6766C139.354 52.5868 139.979 54.7909 141.228 57.289H156.657V70.9546H142.771V112.502H119.517V70.9546Z" fill="#283846"/>
<path d="M186.286 113.384C181.51 113.384 177.028 112.135 172.841 109.637C168.726 107.066 165.42 103.612 162.922 99.2776C160.424 94.8693 159.175 89.9835 159.175 84.6201C159.175 79.3302 160.424 74.5546 162.922 70.2933C165.42 65.9585 168.763 62.5789 172.951 60.1543C177.139 57.7298 181.584 56.5175 186.286 56.5175C190.106 56.5175 193.633 57.5828 196.866 59.7135C200.172 61.8442 202.67 65.0401 204.36 69.3015V56.5175H227.503V112.502H204.36V102.253C200.686 109.674 194.661 113.384 186.286 113.384ZM193.449 95.9714C196.388 95.9714 198.886 94.9428 200.943 92.8856C203.074 90.755 204.213 88.257 204.36 85.3916V84.5099C204.213 81.5711 203.037 79.0731 200.833 77.0159C198.702 74.9587 196.241 73.9301 193.449 73.9301C190.363 73.9301 187.718 75.0322 185.514 77.2363C183.384 79.367 182.318 81.9385 182.318 84.9508C182.318 88.0365 183.42 90.6448 185.625 92.7754C187.829 94.9061 190.437 95.9714 193.449 95.9714Z" fill="#283846"/>
<path d="M258.062 113.384C251.817 113.384 246.968 111.437 243.515 107.543C240.135 103.576 238.445 98.1755 238.445 91.3427V39.8763L261.699 36.4599V89.6896C261.699 91.7468 262.176 93.253 263.132 94.2081C264.16 95.0897 265.923 95.5306 268.421 95.5306C270.258 95.5306 272.058 95.0897 273.822 94.2081L274.593 109.637C269.67 112.135 264.16 113.384 258.062 113.384Z" fill="#283846"/>
<path d="M299.712 113.384C293.541 113.384 288.728 111.4 285.275 107.433C281.822 103.465 280.096 98.0653 280.096 91.2325V57.289H303.459V90.2407C303.459 91.9305 303.9 93.253 304.782 94.2081C305.737 95.0897 306.949 95.5306 308.419 95.5306C309.888 95.5306 311.394 95.0897 312.937 94.2081L314.149 109.527C312.533 110.776 310.402 111.731 307.757 112.392C305.186 113.053 302.504 113.384 299.712 113.384ZM291.777 49.0235C288.324 49.0235 285.385 47.9582 282.961 45.8275C280.61 43.6234 279.434 40.9417 279.434 37.7824C279.434 34.6232 280.683 31.9782 283.181 29.8476C285.679 27.7169 288.545 26.6516 291.777 26.6516C295.157 26.6516 298.059 27.7536 300.484 29.9578C302.982 32.1619 304.231 34.7701 304.231 37.7824C304.231 41.0151 302.982 43.6968 300.484 45.8275C297.986 47.9582 295.084 49.0235 291.777 49.0235Z" fill="#283846"/>
<path d="M344.923 113.384C340.147 113.384 335.665 112.135 331.478 109.637C327.363 107.066 324.057 103.612 321.559 99.2776C319.061 94.8693 317.812 89.9835 317.812 84.6201C317.812 79.3302 319.061 74.5546 321.559 70.2933C324.057 65.9585 327.4 62.5789 331.588 60.1543C335.776 57.7298 340.221 56.5175 344.923 56.5175C348.743 56.5175 352.27 57.5828 355.503 59.7135C358.809 61.8442 361.307 65.0401 362.997 69.3015V56.5175H386.14V112.502H362.997V102.253C359.323 109.674 353.298 113.384 344.923 113.384ZM352.086 95.9714C355.025 95.9714 357.523 94.9428 359.58 92.8856C361.711 90.755 362.85 88.257 362.997 85.3916V84.5099C362.85 81.5711 361.674 79.0731 359.47 77.0159C357.339 74.9587 354.878 73.9301 352.086 73.9301C349 73.9301 346.355 75.0322 344.151 77.2363C342.021 79.367 340.955 81.9385 340.955 84.9508C340.955 88.0365 342.057 90.6448 344.261 92.7754C346.466 94.9061 349.074 95.9714 352.086 95.9714Z" fill="#283846"/>
<path d="M403.888 36.1477H385.263V19.0657H403.888V0H421.741V19.0657H440.366V36.1477H421.741V55.2134H403.888V36.1477Z" fill="#EA575E"/>
</svg>
