<svg width="114" height="115" viewBox="0 0 114 115" fill="none" xmlns="http://www.w3.org/2000/svg">
<g filter="url(#filter0_d)">
<path d="M74.0618 16.9047L76.6586 25.3059L85.4413 24.8728L85.0082 33.6554L93.4093 36.2523L89.9985 44.3572L97.0048 49.6708L91.0276 56.1203L95.7941 63.5098L87.9715 67.5261L89.9231 76.1001L81.1987 77.1987L80.1001 85.9231L71.526 83.9715L67.5098 91.7941L60.1203 87.0277L53.6708 93.0048L48.3572 85.9985L40.2523 89.4094L37.6554 81.0082L28.8728 81.4413L29.3059 72.6586L20.9047 70.0618L24.3156 61.9569L17.3092 56.6433L23.2864 50.1937L18.52 42.8043L26.3426 38.788L24.3909 30.214L33.1154 29.1154L34.214 20.391L42.788 22.3426L46.8043 14.52L54.1937 19.2864L60.6433 13.3093L65.9569 20.3156L74.0618 16.9047Z" fill="#DA3234"/>
<path d="M47.7356 34.958L47.2115 40.403L51.0369 36.4975L52.7804 37.3105L49.7759 43.7538L48.4439 43.1327L49.2652 41.3714L50.8156 38.3931L46.8375 42.3836L45.9258 41.9585L46.428 36.3525L45.1452 39.4502L44.3239 41.2115L42.9963 40.5924L46.0008 34.1491L47.7356 34.958ZM56.114 43.3097L53.565 42.1211L52.7602 43.847L55.7518 45.242L55.2544 46.3085L50.9353 44.2944L53.9399 37.8512L58.2501 39.8611L57.7487 40.9364L54.766 39.5456L54.05 41.0812L56.599 42.2698L56.114 43.3097ZM61.6355 41.4397L62.9631 42.0588L60.883 46.5195C60.6918 46.9296 60.4312 47.2498 60.101 47.4802C59.7753 47.709 59.4072 47.8319 58.997 47.849C58.5868 47.866 58.1737 47.7775 57.7577 47.5835C57.0762 47.2658 56.6257 46.8455 56.4061 46.3229C56.1878 45.7973 56.2266 45.2174 56.5224 44.5831L57.8588 45.2063C57.7116 45.5219 57.6693 45.7859 57.7319 45.9983C57.7945 46.2107 57.9689 46.3836 58.2551 46.517C58.5088 46.6353 58.7514 46.6426 58.9831 46.5386C59.2147 46.4347 59.4055 46.222 59.5554 45.9004L61.6355 41.4397ZM67.8228 48.4248C67.527 49.0591 67.1555 49.5629 66.7085 49.9363C66.2614 50.3097 65.7678 50.5285 65.2279 50.5928C64.6908 50.6584 64.1523 50.5654 63.6125 50.3136C63.0785 50.0646 62.6618 49.7141 62.3626 49.2621C62.0634 48.8101 61.9094 48.2929 61.9008 47.7106C61.8935 47.1254 62.0329 46.5223 62.3188 45.9014L62.4674 45.5828C62.7632 44.9485 63.1368 44.4438 63.5882 44.0689C64.0439 43.6924 64.5396 43.4727 65.0753 43.41C65.6153 43.3458 66.1538 43.4388 66.6907 43.6892C67.2276 43.9396 67.6436 44.2916 67.9385 44.7452C68.2377 45.1972 68.3881 45.7181 68.3897 46.3079C68.3956 46.896 68.2513 47.5058 67.9569 48.1372L67.8228 48.4248ZM66.6136 47.5054C66.9287 46.8298 67.0471 46.2601 66.9689 45.7962C66.8907 45.3323 66.6274 44.9958 66.1789 44.7867C65.7334 44.579 65.3086 44.5928 64.9043 44.8281C64.5015 45.0604 64.1424 45.5108 63.8272 46.1791L63.6806 46.4933C63.3739 47.1512 63.2568 47.718 63.3295 48.1937C63.4022 48.6694 63.6658 49.0131 64.1201 49.225C64.5656 49.4327 64.989 49.4183 65.3903 49.1816C65.7929 48.9419 66.1519 48.4879 66.4671 47.8196L66.6136 47.5054ZM70.8384 50.7038L69.7808 50.2106L68.6809 52.5693L67.3533 51.9503L70.3579 45.507L72.752 46.6234C73.5131 46.9783 74.0211 47.4217 74.2759 47.9536C74.5308 48.4855 74.5137 49.0612 74.2248 49.6807C74.0198 50.1203 73.7527 50.4429 73.4233 50.6485C73.0983 50.8525 72.702 50.9515 72.2344 50.9453L72.4005 54.2284L72.3716 54.2904L70.9467 53.6259L70.8384 50.7038ZM70.2822 49.1353L71.3532 49.6347C71.6865 49.7901 71.9839 49.8264 72.2452 49.7435C72.5079 49.6577 72.7087 49.4658 72.8477 49.1679C72.9894 48.864 73.0138 48.5844 72.9209 48.3292C72.8309 48.0754 72.6075 47.8652 72.2505 47.6987L71.184 47.2014L70.2822 49.1353ZM44.1631 55.0742C43.7896 55.7441 43.2784 56.1702 42.6295 56.3525C41.9836 56.5362 41.283 56.4519 40.5277 56.0997C39.7017 55.7145 39.1805 55.1339 38.9641 54.3577C38.7521 53.58 38.8724 52.7059 39.325 51.7352L39.5086 51.3414C39.7975 50.7218 40.1612 50.2269 40.5996 49.8567C41.0381 49.4865 41.5178 49.2702 42.0389 49.2079C42.5644 49.144 43.0956 49.2373 43.6325 49.4877C44.376 49.8344 44.882 50.3128 45.1506 50.9229C45.4192 51.533 45.4211 52.2146 45.1562 52.9674L43.8286 52.3484C43.9902 51.9172 44.014 51.562 43.9 51.2826C43.7904 51.0016 43.532 50.7662 43.1249 50.5763C42.6823 50.37 42.2762 50.3745 41.9063 50.5899C41.5408 50.8038 41.1996 51.2428 40.8828 51.9067L40.6558 52.3935C40.3312 53.0898 40.1986 53.6475 40.2581 54.0668C40.3206 54.4874 40.579 54.8037 41.0333 55.0155C41.4434 55.2067 41.7921 55.2562 42.0793 55.1639C42.371 55.07 42.623 54.8337 42.8355 54.4551L44.1631 55.0742ZM50.7609 57.0194C50.4651 57.6537 50.0937 58.1575 49.6466 58.5309C49.1995 58.9043 48.706 59.1231 48.166 59.1874C47.629 59.253 47.0905 59.16 46.5506 58.9082C46.0166 58.6592 45.6 58.3087 45.3007 57.8567C45.0015 57.4047 44.8476 56.8875 44.8389 56.3052C44.8317 55.72 44.971 55.1169 45.257 54.496L45.4056 54.1774C45.7013 53.5431 46.0749 53.0384 46.5263 52.6635C46.9821 52.287 47.4778 52.0673 48.0134 52.0046C48.5534 51.9404 49.0919 52.0334 49.6288 52.2838C50.1658 52.5342 50.5817 52.8862 50.8766 53.3398C51.1759 53.7918 51.3263 54.3127 51.3278 54.9025C51.3337 55.4906 51.1894 56.1004 50.895 56.7318L50.7609 57.0194ZM49.5518 56.1C49.8668 55.4244 49.9852 54.8547 49.907 54.3908C49.8288 53.9269 49.5655 53.5904 49.1171 53.3813C48.6716 53.1736 48.2467 53.1874 47.8425 53.4227C47.4396 53.655 47.0805 54.1054 46.7653 54.7737L46.6188 55.0879C46.312 55.7458 46.195 56.3126 46.2677 56.7883C46.3404 57.264 46.6039 57.6077 47.0582 57.8196C47.5037 58.0273 47.9271 58.0129 48.3284 57.7762C48.7311 57.5365 49.09 57.0825 49.4053 56.4142L49.5518 56.1ZM54.4209 60.4124C54.5378 60.1616 54.5387 59.9286 54.4236 59.7133C54.3099 59.495 54.0573 59.2048 53.6658 58.8427C53.2758 58.4776 52.9802 58.1602 52.7791 57.8905C52.2318 57.154 52.1143 56.4509 52.4266 55.7812C52.5889 55.433 52.8307 55.1687 53.152 54.988C53.4776 54.8059 53.8591 54.7233 54.2965 54.7405C54.7368 54.7591 55.1856 54.875 55.6429 55.0882C56.1031 55.3028 56.474 55.5781 56.7555 55.9141C57.0384 56.2472 57.2078 56.6117 57.2638 57.0078C57.3227 57.4052 57.262 57.7971 57.0818 58.1836L55.7542 57.5645C55.8918 57.2695 55.9055 56.9975 55.7953 56.7486C55.6864 56.4967 55.4639 56.2924 55.1275 56.1355C54.803 55.9842 54.5185 55.9359 54.2738 55.9907C54.0306 56.0424 53.8567 56.1805 53.7521 56.4047C53.6545 56.6141 53.6773 56.8385 53.8208 57.0778C53.9671 57.3185 54.2165 57.5964 54.5688 57.9115C55.2181 58.4908 55.6369 59.0292 55.8253 59.5264C56.0136 60.0237 55.9909 60.5231 55.757 61.0247C55.497 61.5823 55.0818 61.922 54.5113 62.0439C53.9422 62.1628 53.3007 62.0559 52.5868 61.7229C52.0911 61.4918 51.6817 61.1914 51.3585 60.8215C51.0366 60.4488 50.8416 60.0543 50.7735 59.6382C50.7083 59.2235 50.7726 58.8082 50.9666 58.3922L52.2986 59.0133C51.9671 59.7243 52.2262 60.2779 53.0758 60.6741C53.3915 60.8213 53.6674 60.8728 53.9036 60.8285C54.1411 60.7812 54.3135 60.6425 54.4209 60.4124ZM63.2206 60.0387L61.2469 59.1184L58.7438 64.4863L57.4162 63.8672L59.9193 58.4993L57.9722 57.5913L58.4736 56.516L63.7221 58.9633L63.2206 60.0387ZM68.0816 65.0962C67.7859 65.7305 67.4144 66.2343 66.9674 66.6077C66.5203 66.9811 66.0267 67.1999 65.4867 67.2642C64.9497 67.3298 64.4112 67.2368 63.8713 66.985C63.3374 66.736 62.9207 66.3855 62.6215 65.9335C62.3222 65.4815 62.1683 64.9643 62.1597 64.382C62.1524 63.7968 62.2918 63.1937 62.5777 62.5728L62.7263 62.2542C63.0221 61.6199 63.3957 61.1152 63.8471 60.7403C64.3028 60.3637 64.7985 60.1441 65.3342 60.0814C65.8742 60.0172 66.4126 60.1102 66.9496 60.3606C67.4865 60.611 67.9025 60.963 68.1974 61.4166C68.4966 61.8686 68.647 62.3895 68.6486 62.9792C68.6544 63.5674 68.5102 64.1772 68.2158 64.8086L68.0816 65.0962ZM66.8725 64.1768C67.1876 63.5012 67.306 62.9315 67.2278 62.4676C67.1496 62.0037 66.8863 61.6672 66.4378 61.4581C65.9923 61.2504 65.5675 61.2642 65.1632 61.4995C64.7603 61.7318 64.4013 62.1822 64.0861 62.8505L63.9395 63.1647C63.6328 63.8226 63.5157 64.3894 63.5884 64.8651C63.6611 65.3408 63.9246 65.6845 64.379 65.8964C64.8245 66.1041 65.2479 66.0897 65.6492 65.853C66.0518 65.6133 66.4108 65.1593 66.726 64.491L66.8725 64.1768Z" fill="white"/>
</g>
<defs>
<filter id="filter0_d" x="0.55072" y="0.256836" width="113.213" height="113.8" filterUnits="userSpaceOnUse" color-interpolation-filters="sRGB">
<feFlood flood-opacity="0" result="BackgroundImageFix"/>
<feColorMatrix in="SourceAlpha" type="matrix" values="0 0 0 0 0 0 0 0 0 0 0 0 0 0 0 0 0 0 127 0"/>
<feOffset dy="4"/>
<feGaussianBlur stdDeviation="2"/>
<feColorMatrix type="matrix" values="0 0 0 0 0 0 0 0 0 0 0 0 0 0 0 0 0 0 0.25 0"/>
<feBlend mode="normal" in2="BackgroundImageFix" result="effect1_dropShadow"/>
<feBlend mode="normal" in="SourceGraphic" in2="effect1_dropShadow" result="shape"/>
</filter>
</defs>
</svg>
